<svg xmlns="http://www.w3.org/2000/svg" viewBox="0 0 4632 3439"><defs><style>.cls-1{fill:#83b6ff;}.cls-2{fill:#f5f8ff;}.cls-3{fill:#223370;}.cls-4{fill:#8abaff;}.cls-5{fill:#fff;}.cls-6{fill:#dd605e;}.cls-7{fill:#ae353f;}.cls-8{fill:#262a6b;}.cls-9{fill:#150e2e;}.cls-10{fill:#81b4fc;}.cls-11{fill:#0c0040;}.cls-12{fill:#ffc4b5;}.cls-13{fill:#ffa9a6;}.cls-14{fill:#f26979;}.cls-15{fill:#0e004c;}.cls-16{fill:#00123d;}.cls-17{fill:#00102e;}.cls-18{fill:#303966;}.cls-19{fill:#ff7c4d;}.cls-20{fill:#fefefe;}.cls-21{fill:#ffbdb8;}.cls-22{fill:#14006e;}.cls-23{fill:#372880;}.cls-24{fill:#771200;}.cls-25{fill:#344b91;}.cls-26{fill:#ffba4a;}.cls-27{fill:#ff9830;}.cls-28{fill:#ff9ea8;}</style></defs><g id="Layer_2" data-name="Layer 2"><path id="background" class="cls-1" d="M3011,2304.28c-769.61,577.26-1766.6,654.27-2098.34,283.37C828.65,2493.76,339.75,1730,1290,801.56c-225.25,339.84-503.76,659.05-441.66,1307.1-22.61-463.52,314.16-1054.59,897-1491.73,686.85-515.18,1573.19-639.7,1891.12-329.57,179.36,175,229.41,640.84-14.79,1173.25,74.13-90.23,275.74-452.17,262.4-808.85C4007.76,1132.08,3663.65,1814.72,3011,2304.28Z"/><g id="telephone"><path class="cls-2" d="M3580.34,611.31V3189.78c0,81.7-57.37,147.92-128.13,147.92H2299.48c-70.76,0-128.12-66.22-128.12-147.92V611.31c0-81.7,57.36-147.93,128.12-147.93H3452.21C3523,463.38,3580.34,529.61,3580.34,611.31Z"/><path class="cls-3" d="M3519.43,611.31V3189.78c0,81.7-57.37,147.92-128.14,147.92H2238.56c-70.76,0-128.12-66.22-128.12-147.92V611.31c0-81.7,57.36-147.93,128.12-147.93H3391.29C3462.06,463.38,3519.43,529.61,3519.43,611.31Z"/><rect class="cls-4" x="2202.41" y="570.67" width="1227.2" height="2609.85" transform="translate(5632.03 3751.19) rotate(180)"/><path class="cls-3" d="M3580.55,787.36a3.29,3.29,0,0,1-3.29-3.3V611.31c0-79.75-60.66-144.64-135.21-144.64a3.29,3.29,0,1,1,0-6.58c78.18,0,141.79,67.84,141.79,151.22V784.06A3.29,3.29,0,0,1,3580.55,787.36Z"/><path class="cls-3" d="M3580.55,1315.73a3.29,3.29,0,0,1-3.29-3.29v-106.1a3.29,3.29,0,0,1,6.58,0v106.1A3.29,3.29,0,0,1,3580.55,1315.73Z"/><path class="cls-3" d="M3442.05,3341a3.3,3.3,0,0,1,0-6.59c74.55,0,135.21-64.88,135.21-144.64V1510.59a3.29,3.29,0,0,1,6.58,0V3189.77C3583.84,3273.16,3520.23,3341,3442.05,3341Z"/><path class="cls-3" d="M3584.62,1209.63h-21.86a19.77,19.77,0,0,1-19.75-19.75V800.53a19.77,19.77,0,0,1,19.75-19.76h21.86a19.77,19.77,0,0,1,19.75,19.76v389.35A19.77,19.77,0,0,1,3584.62,1209.63Zm-21.86-422.27a13.19,13.19,0,0,0-13.17,13.17v389.35a13.19,13.19,0,0,0,13.17,13.17h21.86a13.19,13.19,0,0,0,13.17-13.17V800.53a13.19,13.19,0,0,0-13.17-13.17Z"/><path class="cls-3" d="M3579.7,1513.88h-21.85a19.78,19.78,0,0,1-19.76-19.75V1328.32a19.78,19.78,0,0,1,19.76-19.76h21.85a19.78,19.78,0,0,1,19.76,19.76v165.81A19.77,19.77,0,0,1,3579.7,1513.88Zm-21.85-198.74a13.19,13.19,0,0,0-13.17,13.18v165.81a13.19,13.19,0,0,0,13.17,13.17h21.85a13.19,13.19,0,0,0,13.17-13.17V1328.32a13.19,13.19,0,0,0-13.17-13.18Z"/><path class="cls-3" d="M3566.06,1188.76V801.65c0-9.71,7.37-17.59,16.46-17.59h-19.76c-9.09,0-16.46,7.88-16.46,17.59v387.11c0,9.71,7.37,17.58,16.46,17.58h19.76C3573.43,1206.34,3566.06,1198.47,3566.06,1188.76Z"/><path class="cls-3" d="M3561.14,1493V1329.44c0-9.71,7.37-17.59,16.47-17.59h-19.76c-9.09,0-16.46,7.88-16.46,17.59V1493c0,9.72,7.37,17.59,16.46,17.59h19.76C3568.51,1510.59,3561.14,1502.72,3561.14,1493Z"/><path class="cls-5" d="M3289.5,707.4H3120.94a8.24,8.24,0,1,1,0-16.47H3289.5a8.24,8.24,0,0,1,0,16.47Z"/><path class="cls-5" d="M3289.5,757.3H3120.94a8.23,8.23,0,1,1,0-16.46H3289.5a8.23,8.23,0,1,1,0,16.46Z"/><path class="cls-5" d="M3289.5,807.2H3120.94a8.23,8.23,0,1,1,0-16.46H3289.5a8.23,8.23,0,0,1,0,16.46Z"/><path class="cls-2" d="M2928.39,3291.1H2703.64c-17.17,0-31.14-17.15-31.14-38.23s14-38.22,31.14-38.22h224.75c17.17,0,31.14,17.15,31.14,38.22S2945.56,3291.1,2928.39,3291.1Zm-224.75-69.86c-13.54,0-24.56,14.19-24.56,31.63s11,31.64,24.56,31.64h224.75c13.54,0,24.56-14.19,24.56-31.64s-11-31.63-24.56-31.63Z"/><path class="cls-2" d="M3027.84,521.57H2592.25a3.3,3.3,0,0,1,0-6.59h435.59a3.3,3.3,0,0,1,0,6.59Z"/><path class="cls-2" d="M3091.49,521.57h-21.88a3.3,3.3,0,0,1,0-6.59h21.88a3.3,3.3,0,0,1,0,6.59Z"/></g><path class="cls-6" d="M2885.24,3309.37c1.19-.7,5.35-1.23,11.23-1.63l.13-.12c35.58-4.64,54.11-54.78,54.11-88.07,12.9-9.9,48.08,2.06,63,16.3-8.34,32.94,9.7,60,13.8,81l.14,0c3.51,13.56-.53,20.89-8.17,20.89H2881.08C2874,3337.71,2874.57,3315.61,2885.24,3309.37Z"/><path class="cls-6" d="M2409.35,3309.37c2.66-2.17,19.35-4.5,41-7.33,35.58-4.64,94-15.23,109.93-31.18,13.52-13.51,12.48-52.7,12.48-52.7s55.75,6.11,70.63,20.34c-7.25,21.42,5,56.15,8.16,78.32h0c3.52,13.56-.53,20.89-8.16,20.89H2409.35C2402.26,3337.71,2399.75,3317.16,2409.35,3309.37Z"/><path class="cls-7" d="M2652.86,3340.42h-249.8a2.72,2.72,0,1,1,0-5.43h249.8a2.72,2.72,0,1,1,0,5.43Z"/><g id="legs"><path class="cls-8" d="M2558.07,2333.48c.35,64,2.14,113.57,5.26,139.2,18.94,154.29,9.74,719.41,0,782.87-1.85,12.14,80.72,18,83.59,10.75,6.54-16.59,148.28-413.43,162.42-562.25,6.49-68.28-12.34-146.71-20.87-223.06-4-35.74,111.94-651.87,106.45-757-127.8-25.71-304.06-24.79-304.06-24.79C2567.55,1890.55,2557.06,2153.45,2558.07,2333.48Z"/><path class="cls-8" d="M2692.91,1724c0,7.94,36.85,205.83,69.71,436.45,13,102.69,40.6,217.84,60,318.15,63.45,327.91,98.44,666,113.91,777,1.13,8,80.14,11.33,81.62,3.49,2.48-13.27,91.1-424.46,77.43-616.39-4.53-63.68-47-201.61-47.49-265.51,0-2.4,0-4.82-.06-7.23-.59-84.31-1.17-166.89-1.71-243.43-1.54-215.74-5-338.66-4.38-361.48C3000,1739.17,2692.91,1724,2692.91,1724Z"/><path class="cls-9" d="M2995,3259.58a1.64,1.64,0,0,1-1.65-1.61c-.07-3.39,3.53-28.22,9.49-69.37,19.36-133.54,64.7-446.28,56.68-549.39-.91-11.64-24.56-104.63-40.21-166.17-6.68-26.24-11.95-47-13-51.81-2.63-12-5.47-110-7.35-174.88-.63-21.61-1.12-38.68-1.45-46.93-2-51.44-7.39-210.69-5.33-265.8a1.65,1.65,0,1,1,3.29.12c-2.05,55,3.3,214.14,5.33,265.55.33,8.27.82,25.35,1.45,47,1.77,60.8,4.72,162.55,7.28,174.27,1.05,4.79,6.31,25.49,13,51.7,15.68,61.64,39.37,154.81,40.3,166.72,8,103.49-37.32,416.47-56.7,550.12-5.53,38.15-9.53,65.71-9.46,68.83a1.64,1.64,0,0,1-1.61,1.68Z"/><path class="cls-9" d="M3002.08,3253.75h-.21a1.63,1.63,0,0,1-1.42-1.84c.22-1.82.52-4,.87-6.59a1.65,1.65,0,0,1,3.26.45c-.35,2.55-.64,4.75-.87,6.55A1.63,1.63,0,0,1,3002.08,3253.75Zm3.23-22.94a1,1,0,0,1-.24,0,1.63,1.63,0,0,1-1.39-1.86l1-6.54a1.64,1.64,0,1,1,3.25.49l-1,6.52A1.64,1.64,0,0,1,3005.31,3230.81Zm3.39-22.87-.24,0a1.65,1.65,0,0,1-1.39-1.87l1-6.52a1.65,1.65,0,1,1,3.26.48l-1,6.52A1.65,1.65,0,0,1,3008.7,3207.94Zm3.43-22.85-.25,0a1.63,1.63,0,0,1-1.38-1.87l1-6.52a1.66,1.66,0,0,1,1.88-1.38,1.63,1.63,0,0,1,1.38,1.87l-1,6.52A1.63,1.63,0,0,1,3012.13,3185.09Zm3.42-22.84-.24,0a1.65,1.65,0,0,1-1.39-1.87l1-6.52a1.65,1.65,0,0,1,3.26.49l-1,6.52A1.65,1.65,0,0,1,3015.55,3162.25Zm3.4-22.83-.24,0a1.65,1.65,0,0,1-1.39-1.87l1-6.52a1.64,1.64,0,1,1,3.25.48l-1,6.52A1.65,1.65,0,0,1,3019,3139.42Zm3.38-22.84a1.1,1.1,0,0,1-.25,0,1.65,1.65,0,0,1-1.39-1.86l1-6.53a1.65,1.65,0,1,1,3.26.48l-1,6.53A1.64,1.64,0,0,1,3022.33,3116.58Zm3.33-22.84a1.06,1.06,0,0,1-.24,0,1.65,1.65,0,0,1-1.39-1.86l.95-6.52a1.63,1.63,0,0,1,1.87-1.4,1.65,1.65,0,0,1,1.39,1.87l-.95,6.52A1.65,1.65,0,0,1,3025.66,3093.74Zm3.31-22.84a1,1,0,0,1-.24,0,1.65,1.65,0,0,1-1.4-1.86l.94-6.52a1.65,1.65,0,1,1,3.26.46l-.94,6.53A1.64,1.64,0,0,1,3029,3070.9Zm3.25-22.85H3032a1.65,1.65,0,0,1-1.4-1.86l.92-6.53a1.65,1.65,0,1,1,3.26.46l-.92,6.53A1.64,1.64,0,0,1,3032.22,3048.05Zm3.21-22.85h-.22a1.65,1.65,0,0,1-1.41-1.86l.91-6.53a1.62,1.62,0,0,1,1.85-1.4,1.64,1.64,0,0,1,1.41,1.86l-.91,6.52A1.64,1.64,0,0,1,3035.43,3025.2Zm3.16-22.86h-.23a1.65,1.65,0,0,1-1.4-1.86l.89-6.52a1.64,1.64,0,0,1,3.26.44l-.89,6.53A1.65,1.65,0,0,1,3038.59,3002.34Zm3.1-22.86-.22,0a1.65,1.65,0,0,1-1.42-1.85l.88-6.53a1.64,1.64,0,0,1,3.26.44l-.87,6.53A1.65,1.65,0,0,1,3041.69,2979.48Zm3-22.88h-.22a1.65,1.65,0,0,1-1.41-1.85l.85-6.53a1.63,1.63,0,0,1,1.85-1.42,1.65,1.65,0,0,1,1.42,1.85l-.86,6.53A1.65,1.65,0,0,1,3044.72,2956.6Zm3-22.93h-.21a1.66,1.66,0,0,1-1.43-1.84l.84-6.56a1.65,1.65,0,0,1,3.27.42l-.84,6.55A1.64,1.64,0,0,1,3047.69,2933.67Zm2.89-22.91h-.21a1.66,1.66,0,0,1-1.43-1.84l.81-6.53a1.61,1.61,0,0,1,1.83-1.43,1.64,1.64,0,0,1,1.43,1.83l-.8,6.54A1.66,1.66,0,0,1,3050.58,2910.76Zm2.78-22.84-.19,0a1.63,1.63,0,0,1-1.44-1.83l.78-6.54a1.63,1.63,0,0,1,1.83-1.44,1.66,1.66,0,0,1,1.44,1.83l-.78,6.54A1.65,1.65,0,0,1,3053.36,2887.92Zm2.7-22.92h-.19a1.64,1.64,0,0,1-1.45-1.83l.75-6.54a1.61,1.61,0,0,1,1.82-1.45,1.65,1.65,0,0,1,1.45,1.82l-.75,6.55A1.65,1.65,0,0,1,3056.06,2865Zm2.58-22.93h-.18a1.64,1.64,0,0,1-1.46-1.82l.71-6.55a1.63,1.63,0,0,1,1.82-1.46,1.65,1.65,0,0,1,1.46,1.82l-.72,6.55A1.64,1.64,0,0,1,3058.64,2842.07Zm2.45-23h-.17a1.64,1.64,0,0,1-1.47-1.8l.67-6.56a1.65,1.65,0,1,1,3.28.34l-.67,6.55A1.65,1.65,0,0,1,3061.09,2819.12Zm2.3-23h-.16a1.63,1.63,0,0,1-1.48-1.79q.32-3.3.62-6.56a1.64,1.64,0,0,1,1.8-1.49,1.66,1.66,0,0,1,1.48,1.8c-.2,2.18-.41,4.36-.63,6.56A1.64,1.64,0,0,1,3063.39,2796.16Zm2.12-23h-.15a1.65,1.65,0,0,1-1.5-1.78c.2-2.21.39-4.39.57-6.57a1.62,1.62,0,0,1,1.78-1.5,1.65,1.65,0,0,1,1.5,1.78q-.27,3.27-.57,6.57A1.64,1.64,0,0,1,3065.51,2773.18Zm1.89-23h-.13a1.65,1.65,0,0,1-1.51-1.77q.25-3.3.49-6.57a1.65,1.65,0,0,1,3.29.24q-.24,3.27-.5,6.58A1.64,1.64,0,0,1,3067.4,2750.17Zm1.62-23h-.11a1.65,1.65,0,0,1-1.53-1.75q.21-3.32.4-6.57a1.64,1.64,0,0,1,3.28.2c-.12,2.17-.26,4.36-.4,6.58A1.64,1.64,0,0,1,3069,2727.14Zm1.26-23h-.08a1.64,1.64,0,0,1-1.57-1.72q.15-3.33.28-6.57a1.65,1.65,0,0,1,1.7-1.58,1.63,1.63,0,0,1,1.58,1.7q-.12,3.26-.27,6.6A1.65,1.65,0,0,1,3070.28,2704.09ZM3071,2681h0a1.65,1.65,0,0,1-1.61-1.68q.06-3.36.09-6.58a1.65,1.65,0,0,1,1.65-1.63h0a1.66,1.66,0,0,1,1.64,1.66c0,2.16-.05,4.37-.1,6.61A1.65,1.65,0,0,1,3071,2681Zm0-23.07a1.64,1.64,0,0,1-1.64-1.61q-.07-3.37-.21-6.55a1.64,1.64,0,0,1,1.58-1.71,1.67,1.67,0,0,1,1.71,1.57q.14,3.21.21,6.62a1.64,1.64,0,0,1-1.61,1.68Zm-1.8-23a1.64,1.64,0,0,1-1.61-1.33c-.36-1.84-.81-4-1.33-6.45a1.65,1.65,0,1,1,3.22-.69c.53,2.46,1,4.65,1.34,6.51a1.64,1.64,0,0,1-1.3,1.93A1.73,1.73,0,0,1,3069.21,2635Zm-5-22.59a1.65,1.65,0,0,1-1.6-1.27c-.48-2.06-1-4.21-1.51-6.42a1.64,1.64,0,1,1,3.2-.76c.53,2.22,1,4.36,1.52,6.43a1.64,1.64,0,0,1-1.61,2Zm-5.37-22.48a1.63,1.63,0,0,1-1.6-1.26l-1.57-6.4a1.65,1.65,0,0,1,3.2-.79l1.57,6.42a1.66,1.66,0,0,1-1.21,2A1.84,1.84,0,0,1,3058.86,2589.89Zm-5.52-22.43a1.65,1.65,0,0,1-1.6-1.25l-1.59-6.41a1.65,1.65,0,0,1,3.2-.79l1.59,6.41a1.64,1.64,0,0,1-1.2,2A1.9,1.9,0,0,1,3053.34,2567.46Zm-5.59-22.42a1.65,1.65,0,0,1-1.6-1.25l-1.6-6.39a1.65,1.65,0,0,1,3.19-.81l1.61,6.41a1.64,1.64,0,0,1-1.2,2A1.37,1.37,0,0,1,3047.75,2545Zm-5.64-22.4a1.65,1.65,0,0,1-1.6-1.24l-1.61-6.38a1.65,1.65,0,0,1,3.2-.81l1.61,6.38a1.65,1.65,0,0,1-1.2,2A1.37,1.37,0,0,1,3042.11,2522.64Zm-5.67-22.38a1.64,1.64,0,0,1-1.59-1.24l-1.62-6.39a1.65,1.65,0,0,1,3.19-.81l1.62,6.39a1.64,1.64,0,0,1-1.19,2A1.44,1.44,0,0,1,3036.44,2500.26Zm-5.69-22.39a1.65,1.65,0,0,1-1.59-1.24l-1.63-6.4a1.65,1.65,0,0,1,3.19-.81l1.63,6.4a1.65,1.65,0,0,1-1.19,2A1.48,1.48,0,0,1,3030.75,2477.87Zm-5.69-22.39a1.65,1.65,0,0,1-1.59-1.24l-1.63-6.41a1.65,1.65,0,0,1,3.2-.8l1.62,6.4a1.65,1.65,0,0,1-1.19,2A1.92,1.92,0,0,1,3025.06,2455.48Zm-5.66-22.43a1.63,1.63,0,0,1-1.59-1.25c-.64-2.55-1.17-4.72-1.59-6.44a1.65,1.65,0,1,1,3.2-.78c.41,1.72.95,3.88,1.58,6.43a1.64,1.64,0,0,1-1.2,2A1.83,1.83,0,0,1,3019.4,2433.05Zm-3.76-22.83a1.65,1.65,0,0,1-1.64-1.53c-.14-2-.28-4.23-.42-6.61a1.64,1.64,0,0,1,3.28-.2c.14,2.37.28,4.57.43,6.58a1.65,1.65,0,0,1-1.53,1.76Zm-1.29-23.08a1.64,1.64,0,0,1-1.64-1.57q-.15-3.2-.3-6.6a1.65,1.65,0,0,1,3.29-.14q.15,3.39.3,6.59a1.64,1.64,0,0,1-1.57,1.72Zm-1-23.08a1.64,1.64,0,0,1-1.64-1.58l-.26-6.6a1.65,1.65,0,0,1,3.29-.12l.25,6.59a1.64,1.64,0,0,1-1.58,1.71Zm-.85-23.08a1.66,1.66,0,0,1-1.65-1.59l-.22-6.59a1.65,1.65,0,1,1,3.29-.11l.22,6.59a1.64,1.64,0,0,1-1.58,1.7Zm-.78-23.08a1.64,1.64,0,0,1-1.64-1.59l-.21-6.6a1.65,1.65,0,0,1,1.59-1.7,1.63,1.63,0,0,1,1.7,1.6l.21,6.59a1.64,1.64,0,0,1-1.59,1.7Zm-.72-23.08a1.65,1.65,0,0,1-1.65-1.6l-.19-6.59a1.63,1.63,0,0,1,1.59-1.69,1.59,1.59,0,0,1,1.7,1.59l.2,6.6a1.66,1.66,0,0,1-1.6,1.69Zm-.69-23.08a1.65,1.65,0,0,1-1.64-1.6l-.2-6.6a1.66,1.66,0,0,1,1.6-1.69,1.68,1.68,0,0,1,1.69,1.6l.2,6.59a1.65,1.65,0,0,1-1.6,1.7Zm-.67-23.09a1.65,1.65,0,0,1-1.65-1.6l-.19-6.6a1.65,1.65,0,0,1,1.6-1.69,1.68,1.68,0,0,1,1.69,1.6l.19,6.6a1.64,1.64,0,0,1-1.6,1.69Zm-.68-23.09a1.65,1.65,0,0,1-1.64-1.6l-.2-6.6a1.64,1.64,0,0,1,1.59-1.7,1.62,1.62,0,0,1,1.7,1.6l.2,6.6a1.65,1.65,0,0,1-1.6,1.7Zm-.74-23.13a1.65,1.65,0,0,1-1.65-1.59l0-1c-.06-1.54-.13-3.43-.21-5.64a1.65,1.65,0,1,1,3.29-.12c.08,2.2.15,4.09.21,5.62l0,1a1.64,1.64,0,0,1-1.59,1.7Zm-.79-23.09a1.64,1.64,0,0,1-1.64-1.59l-.2-6.6a1.64,1.64,0,0,1,1.59-1.7h.05a1.65,1.65,0,0,1,1.65,1.6l.2,6.59a1.65,1.65,0,0,1-1.6,1.7Zm-.68-23.07a1.64,1.64,0,0,1-1.64-1.6l-.19-6.6a1.65,1.65,0,0,1,1.6-1.69,1.68,1.68,0,0,1,1.69,1.6l.19,6.59a1.66,1.66,0,0,1-1.6,1.7Zm-.63-23.07a1.64,1.64,0,0,1-1.64-1.61l-.18-6.59a1.66,1.66,0,0,1,1.61-1.69,1.68,1.68,0,0,1,1.69,1.61l.17,6.59a1.66,1.66,0,0,1-1.6,1.69Zm-.58-23.07a1.65,1.65,0,0,1-1.65-1.61l-.16-6.59a1.64,1.64,0,0,1,1.61-1.68h0a1.65,1.65,0,0,1,1.65,1.6l.15,6.59a1.64,1.64,0,0,1-1.6,1.69Zm-.54-23.07a1.66,1.66,0,0,1-1.65-1.61l-.14-6.59a1.64,1.64,0,0,1,1.61-1.68,1.63,1.63,0,0,1,1.68,1.61l.15,6.58a1.65,1.65,0,0,1-1.61,1.69Zm-.49-23.07a1.65,1.65,0,0,1-1.65-1.61l-.13-6.61a1.64,1.64,0,0,1,1.61-1.68h0a1.64,1.64,0,0,1,1.65,1.61l.13,6.61a1.64,1.64,0,0,1-1.61,1.68Zm-.44-23.09a1.65,1.65,0,0,1-1.65-1.62l-.11-6.57A1.66,1.66,0,0,1,3004,2031a1.7,1.7,0,0,1,1.67,1.62l.12,6.58a1.66,1.66,0,0,1-1.62,1.67Zm-.37-23.05a1.65,1.65,0,0,1-1.65-1.62l-.09-6.6a1.65,1.65,0,0,1,1.62-1.67h0a1.65,1.65,0,0,1,1.65,1.63l.09,6.59a1.64,1.64,0,0,1-1.62,1.67Zm-.3-23.08a1.64,1.64,0,0,1-1.64-1.63l-.07-6.59a1.65,1.65,0,0,1,3.29,0l.07,6.59a1.64,1.64,0,0,1-1.63,1.66Zm-.18-23.07a1.65,1.65,0,0,1-1.64-1.64l0-6.6a1.65,1.65,0,0,1,1.64-1.65h0a1.65,1.65,0,0,1,1.65,1.64l0,6.59a1.65,1.65,0,0,1-1.64,1.66Zm0-23.07h0a1.64,1.64,0,0,1-1.64-1.65c0-2.26,0-4.46,0-6.59a1.64,1.64,0,0,1,1.64-1.64h0a1.64,1.64,0,0,1,1.63,1.66c0,2.13,0,4.33,0,6.58A1.65,1.65,0,0,1,3003.23,1948.63Zm.31-23.05h-.05a1.63,1.63,0,0,1-1.6-1.68c.06-2.35.12-4.56.2-6.61a1.6,1.6,0,0,1,1.71-1.58,1.64,1.64,0,0,1,1.58,1.71c-.08,2-.14,4.22-.2,6.56A1.65,1.65,0,0,1,3003.54,1925.58Z"/><path class="cls-9" d="M2621,3265.17a1.77,1.77,0,0,1-.46-.07,1.64,1.64,0,0,1-1.12-2c14.39-49.29,115.23-508.93,119.05-583.39,1.25-24.51-5.08-66.83-10.68-104.18-3.71-24.74-7.21-48.11-8.4-64.93-1-14.4,1.86-42.89,5.52-79,7.34-72.56,17.41-171.94,5-243.47a1.64,1.64,0,0,1,3.24-.56c12.47,72,2.38,171.61-5,244.37-3.63,35.91-6.51,64.28-5.51,78.39,1.19,16.7,4.68,40,8.38,64.69,5.89,39.33,12,80,10.71,104.83-3.86,75.13-102.59,527.32-119.18,584.14A1.65,1.65,0,0,1,2621,3265.17Z"/><path class="cls-9" d="M2630.28,3260.46a1.76,1.76,0,0,1-.46-.06,1.65,1.65,0,0,1-1.13-2q.86-2.93,1.8-6.33a1.64,1.64,0,1,1,3.17.88q-1,3.43-1.81,6.37A1.62,1.62,0,0,1,2630.28,3260.46Zm6.09-22.31a1.52,1.52,0,0,1-.42-.06,1.65,1.65,0,0,1-1.18-2q.81-3.07,1.66-6.38a1.65,1.65,0,0,1,3.19.82q-.85,3.32-1.66,6.4A1.65,1.65,0,0,1,2636.37,3238.15Zm5.72-22.4a1.75,1.75,0,0,1-.4-.05,1.64,1.64,0,0,1-1.2-2l1.59-6.39a1.65,1.65,0,0,1,3.2.79l-1.6,6.4A1.64,1.64,0,0,1,2642.09,3215.75Zm5.53-22.43a1.74,1.74,0,0,1-.39-.05,1.65,1.65,0,0,1-1.21-2l1.56-6.4a1.65,1.65,0,0,1,3.2.77l-1.56,6.41A1.64,1.64,0,0,1,2647.62,3193.32Zm5.42-22.45a1.74,1.74,0,0,1-.39,0,1.64,1.64,0,0,1-1.21-2l1.53-6.41a1.64,1.64,0,0,1,3.2.76l-1.53,6.42A1.65,1.65,0,0,1,2653,3170.87Zm5.33-22.47a1.58,1.58,0,0,1-.38,0,1.65,1.65,0,0,1-1.23-2l1.51-6.41a1.65,1.65,0,0,1,3.21.74l-1.51,6.43A1.64,1.64,0,0,1,2658.37,3148.4Zm5.25-22.48a1.55,1.55,0,0,1-.37,0,1.63,1.63,0,0,1-1.23-2l1.48-6.42a1.65,1.65,0,1,1,3.21.74l-1.48,6.42A1.65,1.65,0,0,1,2663.62,3125.92Zm5.19-22.49a1.61,1.61,0,0,1-.37,0,1.64,1.64,0,0,1-1.23-2l1.47-6.43a1.65,1.65,0,0,1,3.21.74l-1.47,6.43A1.65,1.65,0,0,1,2668.81,3103.43Zm5.14-22.5a1.61,1.61,0,0,1-.37,0,1.65,1.65,0,0,1-1.24-2l1.46-6.43a1.65,1.65,0,0,1,3.21.73l-1.46,6.43A1.64,1.64,0,0,1,2674,3080.93Zm5.09-22.51a2.2,2.2,0,0,1-.36,0,1.65,1.65,0,0,1-1.25-2l1.44-6.43a1.65,1.65,0,0,1,3.22.72l-1.45,6.43A1.64,1.64,0,0,1,2679,3058.42Zm5-22.52a1.47,1.47,0,0,1-.36,0,1.65,1.65,0,0,1-1.25-2l1.43-6.43a1.64,1.64,0,0,1,3.21.71l-1.43,6.44A1.64,1.64,0,0,1,2684.08,3035.9Zm5-22.53a2.09,2.09,0,0,1-.35,0,1.65,1.65,0,0,1-1.26-2l1.42-6.44a1.64,1.64,0,0,1,3.21.71l-1.41,6.43A1.65,1.65,0,0,1,2689.07,3013.37Zm4.95-22.55a2.19,2.19,0,0,1-.36,0,1.65,1.65,0,0,1-1.25-2l1.4-6.44a1.65,1.65,0,0,1,3.22.7l-1.41,6.44A1.63,1.63,0,0,1,2694,2990.82Zm4.91-22.59a2.07,2.07,0,0,1-.35,0,1.64,1.64,0,0,1-1.26-2l1.39-6.45a1.65,1.65,0,1,1,3.22.69l-1.39,6.46A1.66,1.66,0,0,1,2698.93,2968.23Zm4.85-22.56a1.32,1.32,0,0,1-.34,0,1.64,1.64,0,0,1-1.27-2l1.37-6.43a1.65,1.65,0,0,1,3.22.69l-1.37,6.43A1.65,1.65,0,0,1,2703.78,2945.67Zm4.8-22.56a2,2,0,0,1-.34,0,1.65,1.65,0,0,1-1.27-1.95l1.36-6.45a1.65,1.65,0,0,1,3.22.68l-1.36,6.45A1.65,1.65,0,0,1,2708.58,2923.11Zm4.75-22.58a1.32,1.32,0,0,1-.34,0,1.63,1.63,0,0,1-1.27-1.94l1.34-6.46a1.65,1.65,0,0,1,3.22.68l-1.34,6.45A1.65,1.65,0,0,1,2713.33,2900.53Zm4.69-22.6-.34,0a1.66,1.66,0,0,1-1.28-2l1.33-6.45a1.65,1.65,0,0,1,3.23.66l-1.33,6.46A1.64,1.64,0,0,1,2718,2877.93Zm4.62-22.61-.32,0a1.64,1.64,0,0,1-1.29-1.94l1.31-6.46a1.64,1.64,0,1,1,3.22.65l-1.3,6.46A1.66,1.66,0,0,1,2722.64,2855.32Zm4.55-22.63-.32,0a1.65,1.65,0,0,1-1.29-1.94l1.28-6.46a1.65,1.65,0,1,1,3.23.64l-1.28,6.47A1.66,1.66,0,0,1,2727.19,2832.69Zm4.46-22.65a1.64,1.64,0,0,1-1.61-2l1.25-6.47a1.65,1.65,0,0,1,3.23.63l-1.25,6.47A1.64,1.64,0,0,1,2731.65,2810Zm4.36-22.67-.31,0a1.65,1.65,0,0,1-1.31-1.93l1.22-6.47a1.68,1.68,0,0,1,1.92-1.32,1.66,1.66,0,0,1,1.32,1.92l-1.22,6.48A1.66,1.66,0,0,1,2736,2787.37Zm4.22-22.71-.3,0a1.64,1.64,0,0,1-1.32-1.92q.58-3.28,1.17-6.48a1.63,1.63,0,0,1,1.91-1.33,1.65,1.65,0,0,1,1.33,1.91c-.39,2.13-.78,4.3-1.18,6.49A1.63,1.63,0,0,1,2740.23,2764.66Zm4-22.74a1.33,1.33,0,0,1-.28,0,1.65,1.65,0,0,1-1.35-1.9c.38-2.2.75-4.37,1.11-6.49a1.64,1.64,0,0,1,3.24.54q-.53,3.2-1.1,6.51A1.65,1.65,0,0,1,2744.26,2741.92Zm3.74-22.81a1.1,1.1,0,0,1-.25,0,1.64,1.64,0,0,1-1.37-1.88l1-6.51a1.64,1.64,0,1,1,3.25.49q-.47,3.17-1,6.53A1.65,1.65,0,0,1,2748,2719.11Zm3.24-22.9h-.2a1.64,1.64,0,0,1-1.44-1.83q.42-3.48.74-6.54a1.67,1.67,0,0,1,1.8-1.47,1.64,1.64,0,0,1,1.47,1.81c-.21,2-.46,4.26-.74,6.59A1.64,1.64,0,0,1,2751.24,2696.21Zm1.59-23a1.64,1.64,0,0,1-1.64-1.62c0-2.05-.11-4.25-.23-6.53a1.65,1.65,0,1,1,3.29-.17c.12,2.32.2,4.56.23,6.65a1.65,1.65,0,0,1-1.63,1.67Zm-1.66-23a1.65,1.65,0,0,1-1.63-1.46c-.25-2.14-.51-4.31-.8-6.52a1.64,1.64,0,1,1,3.26-.42q.43,3.33.81,6.56a1.65,1.65,0,0,1-1.45,1.83Zm-3.18-22.85a1.65,1.65,0,0,1-1.63-1.39q-.51-3.22-1.06-6.49a1.66,1.66,0,0,1,1.36-1.9,1.64,1.64,0,0,1,1.89,1.35c.37,2.19.72,4.37,1.06,6.52a1.64,1.64,0,0,1-1.36,1.89Zm-3.89-22.74a1.66,1.66,0,0,1-1.62-1.35l-1.18-6.5a1.65,1.65,0,0,1,3.24-.59l1.18,6.5a1.64,1.64,0,0,1-1.33,1.91A1.36,1.36,0,0,1,2744.1,2604.58Zm-4.19-22.7a1.66,1.66,0,0,1-1.62-1.35l-1.2-6.48a1.64,1.64,0,1,1,3.23-.6l1.21,6.48a1.65,1.65,0,0,1-1.31,1.92Zm-4.18-22.69a1.65,1.65,0,0,1-1.62-1.35c-.39-2.19-.78-4.36-1.15-6.51a1.64,1.64,0,0,1,3.24-.56c.37,2.13.76,4.3,1.15,6.48a1.64,1.64,0,0,1-1.33,1.91A1.43,1.43,0,0,1,2735.73,2559.19Zm-3.83-22.75a1.64,1.64,0,0,1-1.63-1.4q-.51-3.35-1-6.54a1.65,1.65,0,0,1,1.41-1.86,1.61,1.61,0,0,1,1.85,1.4q.45,3.18.95,6.5a1.64,1.64,0,0,1-1.37,1.88Zm-2.8-22.9a1.65,1.65,0,0,1-1.64-1.52l-.07-1.06c-.12-1.67-.19-3.56-.21-5.63a1.66,1.66,0,0,1,1.64-1.66h0a1.65,1.65,0,0,1,1.65,1.63c0,2,.08,3.83.19,5.44l.08,1a1.65,1.65,0,0,1-1.51,1.77Zm.29-23h-.1a1.63,1.63,0,0,1-1.54-1.74q.2-3.16.45-6.6a1.6,1.6,0,0,1,1.76-1.51,1.63,1.63,0,0,1,1.52,1.76q-.26,3.41-.45,6.55A1.64,1.64,0,0,1,2729.39,2490.5Zm1.84-23h-.15a1.64,1.64,0,0,1-1.49-1.79c.19-2.14.4-4.33.61-6.57a1.62,1.62,0,0,1,1.8-1.48,1.64,1.64,0,0,1,1.48,1.8c-.21,2.23-.42,4.42-.61,6.55A1.65,1.65,0,0,1,2731.23,2467.51Zm2.23-23h-.17a1.66,1.66,0,0,1-1.47-1.81l.66-6.55a1.67,1.67,0,0,1,1.8-1.48,1.65,1.65,0,0,1,1.48,1.81l-.66,6.55A1.65,1.65,0,0,1,2733.46,2444.55Zm2.32-22.94h-.17a1.63,1.63,0,0,1-1.47-1.8l.65-6.55a1.67,1.67,0,0,1,1.8-1.48,1.65,1.65,0,0,1,1.48,1.8l-.66,6.56A1.64,1.64,0,0,1,2735.78,2421.61Zm2.25-23h-.16a1.64,1.64,0,0,1-1.48-1.79c.21-2.17.41-4.36.62-6.56a1.62,1.62,0,0,1,1.79-1.48,1.65,1.65,0,0,1,1.49,1.79c-.21,2.2-.41,4.39-.62,6.56A1.65,1.65,0,0,1,2738,2398.66Zm2.1-23H2740a1.65,1.65,0,0,1-1.5-1.78l.56-6.56a1.61,1.61,0,0,1,1.78-1.5,1.64,1.64,0,0,1,1.5,1.77l-.56,6.57A1.64,1.64,0,0,1,2740.13,2375.7Zm1.85-23h-.13a1.66,1.66,0,0,1-1.52-1.76c.17-2.19.32-4.37.48-6.57a1.64,1.64,0,0,1,1.76-1.53,1.66,1.66,0,0,1,1.52,1.76c-.15,2.2-.31,4.4-.47,6.58A1.65,1.65,0,0,1,2742,2352.71Zm1.53-23h-.1a1.65,1.65,0,0,1-1.55-1.74c.13-2.19.26-4.38.37-6.57a1.65,1.65,0,1,1,3.29.17q-.18,3.3-.37,6.6A1.65,1.65,0,0,1,2743.51,2329.71Zm1.14-23h-.07A1.64,1.64,0,0,1,2743,2305q.14-3.28.24-6.56a1.67,1.67,0,0,1,1.7-1.59,1.64,1.64,0,0,1,1.59,1.69q-.11,3.3-.24,6.59A1.64,1.64,0,0,1,2744.65,2306.67Z"/><path class="cls-9" d="M2986.81,1965.82a1.64,1.64,0,0,1-.8-.2c-.7-.39-1.39-.79-2.08-1.2a1.65,1.65,0,0,1,1.69-2.83c.66.39,1.32.78,2,1.15a1.64,1.64,0,0,1-.8,3.08Zm-11.49-7.72a1.63,1.63,0,0,1-1-.36c-1.71-1.36-3.42-2.83-5.08-4.36a1.65,1.65,0,0,1-.09-2.33,1.66,1.66,0,0,1,2.33-.09c1.59,1.48,3.24,2.89,4.89,4.2a1.65,1.65,0,0,1,.26,2.32A1.62,1.62,0,0,1,2975.32,1958.1Zm-13-12.58a1.66,1.66,0,0,1-1.26-.58c-1.42-1.67-2.83-3.42-4.18-5.22a1.65,1.65,0,0,1,2.63-2c1.31,1.74,2.68,3.44,4.06,5.06a1.65,1.65,0,0,1-.18,2.32A1.62,1.62,0,0,1,2962.37,1945.52Zm-10.58-14.68a1.66,1.66,0,0,1-1.4-.79c-1.14-1.87-2.26-3.82-3.33-5.79a1.65,1.65,0,0,1,2.9-1.57c1,1.93,2.13,3.83,3.24,5.64a1.65,1.65,0,0,1-1.41,2.51Zm-8.34-16.07a1.63,1.63,0,0,1-1.51-1c-.89-2-1.75-4.07-2.56-6.14a1.65,1.65,0,1,1,3.06-1.21c.8,2,1.64,4.06,2.51,6a1.64,1.64,0,0,1-.84,2.17A1.57,1.57,0,0,1,2943.45,1914.77Zm-6.39-16.94a1.63,1.63,0,0,1-1.57-1.15c-.67-2.1-1.3-4.24-1.9-6.37a1.64,1.64,0,0,1,3.17-.88c.59,2.09,1.21,4.19,1.87,6.26a1.65,1.65,0,0,1-1.07,2.07A1.77,1.77,0,0,1,2937.06,1897.83Zm-4.65-17.51a1.64,1.64,0,0,1-1.61-1.29q-.71-3.29-1.3-6.52a1.65,1.65,0,0,1,3.24-.59q.59,3.18,1.28,6.41a1.65,1.65,0,0,1-1.26,2A2.07,2.07,0,0,1,2932.41,1880.32Zm-3.06-17.85a1.64,1.64,0,0,1-1.63-1.44c-.28-2.24-.53-4.44-.73-6.6a1.64,1.64,0,0,1,1.48-1.8,1.62,1.62,0,0,1,1.79,1.48q.31,3.2.72,6.5a1.64,1.64,0,0,1-1.42,1.84Zm-1.48-18.06a1.64,1.64,0,0,1-1.64-1.59c-.08-2.09-.11-4.11-.11-6.07v-.58a1.65,1.65,0,0,1,3.29,0v.59c0,1.91,0,3.9.11,6a1.65,1.65,0,0,1-1.59,1.7Zm.41-18.1h-.15a1.63,1.63,0,0,1-1.49-1.79c.22-2.41.51-4.65.86-6.66a1.65,1.65,0,0,1,3.25.57c-.34,1.92-.62,4.07-.83,6.39A1.65,1.65,0,0,1,2928.28,1826.31Z"/><path class="cls-9" d="M2858.15,2676.64a1.64,1.64,0,0,1-1.63-1.38c-23.6-146.17-54.9-292.61-73.6-380.1-8.52-39.86-14.67-68.66-17.15-83.26a1.65,1.65,0,1,1,3.25-.55c2.46,14.53,8.61,43.3,17.12,83.12,18.71,87.52,50,234,73.63,380.26a1.64,1.64,0,0,1-1.36,1.89A1.18,1.18,0,0,1,2858.15,2676.64Z"/></g><g id="body"><path class="cls-5" d="M2415.72,1510.56c-12.95,22.21-277.07,35.58-288.57,47.55-10.19,10.61,7,133.67,18.76,143.73,24.49,20.94,402.08,12.17,408.78-36.9,2-14.69,26.23-62.54,17.77-80.84C2543.49,1521.48,2437.52,1473.18,2415.72,1510.56Z"/><path class="cls-5" d="M2510.59,2311.15c37.66,41.53,495.65,42.25,618.21-5.37,10.54-4.09-93.65-618.58-103.46-648.57-.39-1.18-.41-14.45-.2-34.28.2-20.72.67-48.6,1.27-77.3.65-33.59,1.49-68.33,2.25-94,.61-21.41,1.21-36.56,1.6-39.59,11.87-89.58,93-255.66,55.63-293.28-41.9-42.11-113.65-79.41-183.66-107.23-46.34-18.4-140.06-15.19-185,4.34-35.35,15.35-134.25,67.33-164.56,121.62-7.46,13.34,10.7,417.86,6.42,468.22C2551,1723.17,2497,2296.12,2510.59,2311.15Z"/><path class="cls-4" d="M2739.76,982.37c5.11-3.76,124.53-20.6,138.86-13.31,3.26,1.66,23.61,42.45,23.61,42.45l-203.5,293.24s-4.36-164.6,9.73-253C2710.72,1037.54,2736.1,985.05,2739.76,982.37Z"/><path class="cls-5" d="M3085.9,1118.73c80.67,73.13,183.23,320.92,183.23,401.53,0,121.72-224,334.48-237.34,334.43-20.06-.08-95.95-67.07-98-75.06-4.26-16.38,147.6-227,141.46-262.78-6.25-36.43-48.46-117.09-111.31-218.21C2890.72,1180.87,2985.69,1027.9,3085.9,1118.73Z"/><path class="cls-5" d="M2600.74,1608.73c7-46.22-20.19-178.36,6.28-315.43,30.73-159-17.66-218.91-54.36-155.84-44.56,76.57-98.53,303.54-136.94,373.1C2393.51,1550.77,2596.87,1634.42,2600.74,1608.73Z"/><path class="cls-4" d="M2541.54,1778a2.73,2.73,0,0,1-.5,0,2.47,2.47,0,0,1-1.92-2.92c18.26-88.53,19.11-252.63,19.79-384.49.43-82.28.77-147.28,5.15-173.67a2.47,2.47,0,0,1,4.87.81c-4.32,26-4.67,94.07-5.08,172.89-.68,132.07-1.53,296.44-19.9,385.46A2.48,2.48,0,0,1,2541.54,1778Z"/><path class="cls-4" d="M3124.36,1523.65c-3.5,0-8.43-.41-15.37-1.05-7.4-.69-18.58-1.73-20.55-.56a2.47,2.47,0,0,1-2.53-4.24c3.17-1.9,11-1.28,23.53-.12,4.72.44,11.11,1,15.16,1h.09c-3.92-1.54-10.63-3.37-15.54-4.72-16.28-4.45-22.46-6.51-22.85-10.46-.12-1.2.29-2.92,2.95-4.24,12.2-6.1,53,5.12,65.25,8.71a2.47,2.47,0,1,1-1.39,4.73c-24.25-7.11-52-12.63-60.89-9.36,3.33,1.78,12.12,4.18,18.23,5.86,14.54,4,20.58,5.92,21.79,9.14a3.31,3.31,0,0,1-.44,3.25C3130.69,1523.07,3128.55,1523.65,3124.36,1523.65Z"/><path class="cls-4" d="M2454.92,1563c-3.77,0-7.66-6.42-13.56-16.17-5.15-8.51-12.21-20.16-16.78-21.5a3.42,3.42,0,0,0-.81-.16c-.9,3.24,6.36,18.1,11.1,22.5a2.47,2.47,0,0,1-3.37,3.62c-4.4-4.1-15.49-22.56-11.94-28.79.56-1,2.3-3.12,6.41-1.91,6.41,1.88,13.13,13,19.61,23.68,3,4.87,6.85,11.32,8.94,13.26a13.68,13.68,0,0,0,.21-4.12c-.63-9.23-7.13-27.77-22.46-41a2.47,2.47,0,1,1,3.23-3.73c17.31,15,25.14,37.52,24.13,48.06-.27,2.87-1.23,4.8-2.85,5.74A3.66,3.66,0,0,1,2454.92,1563Z"/><path class="cls-4" d="M2999.65,1357.73c0,12.75,21.17,49.42,29,93.88.61-21.41,1.21-36.56,1.6-39.59C3028.88,1409.07,3016.38,1385.37,2999.65,1357.73Z"/><path class="cls-4" d="M2933.76,1771.87c9.84-21,81.33-133,91.38-148.94.7-17.24,1.65-49.13,1.27-77.3h0C2997.91,1603.05,2933.76,1751.48,2933.76,1771.87Z"/><path class="cls-4" d="M2655.48,2338.55h-.05A2.47,2.47,0,0,1,2653,2336c.76-40,18.84-979.82,27.46-1005.17,1-3.06,5-10.35,10.94-21.37,4-7.36,8.94-16.52,14-26.32a2.47,2.47,0,0,1,4.38,2.28c-5.11,9.84-10.07,19-14.06,26.39-5.42,10-9.71,17.94-10.62,20.61-6.69,19.71-20.72,665.14-27.19,1003.67A2.48,2.48,0,0,1,2655.48,2338.55Z"/><path class="cls-4" d="M2677.48,1425.82a2.65,2.65,0,0,1-.87-.15,2.48,2.48,0,0,1-1.45-3.18c2-5.4,20-52.88,28.1-58.62,6.87-4.85,132.1-115.69,144.24-138.78.71-2.43-4.86-14.75-8.19-22.12-6.68-14.77-8.82-20.18-6.6-22.86,2.59-3.14,10.43-1.48,32.65,5.09,5.13,1.52,10,3,12.14,3.34,3.76-3,18.47-24.88,32.71-46.09,22.24-33.13,49.92-74.35,65.63-89.51a2.47,2.47,0,1,1,3.43,3.55c-15.33,14.8-42.85,55.78-65,88.72-28.74,42.79-33.16,48.66-36.71,48.33-2.06-.2-6.3-1.43-13.64-3.6-7.59-2.25-22.85-6.77-27.14-6.48.45,3,4.19,11.29,7,17.48,7.06,15.61,10,22.84,8.06,26.45-12.94,24.61-139.39,136-145.76,140.52-5.18,3.66-18.89,36.48-26.32,56.31A2.46,2.46,0,0,1,2677.48,1425.82Z"/><path class="cls-4" d="M2688.89,1316.8a2.46,2.46,0,0,1-2.25-1.46c-9.19-20.53-55-123.32-55-130.46,0-4.15,6.38-10.91,16.88-21.56,2.91-3,6.31-6.41,8.32-8.73-2.2.29-5.18.91-7.44,1.37-5.32,1.09-10.35,2.13-13.47,1.73a3.59,3.59,0,0,1-2.57-1.68c-5.36-8,.62-69,8.18-97.51a2.47,2.47,0,1,1,4.77,1.27c-8.37,31.51-12.22,85.94-9.08,93.07,2.5,0,7.11-.88,11.18-1.72,8.22-1.69,12.25-2.41,14.2-.38,2.59,2.69-.46,5.79-10.58,16-5.32,5.4-15.23,15.45-15.45,18.12.49,5.82,32.93,80,54.61,128.42a2.48,2.48,0,0,1-1.25,3.27A2.58,2.58,0,0,1,2688.89,1316.8Zm-51.47-163.55h0Z"/><path class="cls-4" d="M3015,1393.31a2.46,2.46,0,0,1-2.29-1.54c-7.53-18.54-17.92-39-27.09-57-6.88-13.54-13.39-26.33-17.42-35.9a2.47,2.47,0,0,1,4.56-1.91c4,9.4,10.42,22.11,17.27,35.56,9.21,18.11,19.65,38.62,27.25,57.35a2.47,2.47,0,0,1-1.36,3.22A2.51,2.51,0,0,1,3015,1393.31Z"/><path class="cls-10" d="M3031.11,1857.23c-6.09,0-17.15-8.83-32.73-22.88-1.74-1.57-3.53-3.18-4-3.53a2.47,2.47,0,0,1,2.29-4.38c.64.31,1.29.87,5,4.24,20.79,18.76,27.52,22.11,29.51,21.61,5.39-1.33,16.82-8.61,29.16-21.42a2.46,2.46,0,1,1,3.55,3.42c-13.08,13.6-25.26,21.25-31.53,22.8A5.75,5.75,0,0,1,3031.11,1857.23Z"/><path class="cls-10" d="M2934.7,1778a2.48,2.48,0,0,1-2.11-1.18,9.92,9.92,0,0,1-1.3-5c.09-3.87,10.1-31.58,13.91-38.51a2.47,2.47,0,0,1,4.33,2.38c-3.83,7-13.11,33.38-13.3,36.26a5,5,0,0,0,.57,2.31,2.47,2.47,0,0,1-2.1,3.76Z"/><path class="cls-4" d="M2896.06,2049.41c-19.72,0-45.06-.84-50.94-5-1.78-1.25-6.5-4.59-9.27-60-1.49-29.63-1.91-67-1.09-95.22a2.51,2.51,0,0,1,2.54-2.39,2.46,2.46,0,0,1,2.4,2.54c-1.75,59.81,2,145.43,8.3,151,4.46,3.14,32.16,4.72,67.37,3.81,36.53-.94,62.2-4,65-6.28a2.45,2.45,0,0,1,3.47-.11,2.51,2.51,0,0,1,.11,3.52c-5.39,5.82-57.24,7.51-67.58,7.79C2912,2049.25,2904.56,2049.41,2896.06,2049.41Z"/><path class="cls-5" d="M2715.7,1023.05a2.45,2.45,0,0,1-1.39-.43,2.47,2.47,0,0,1-.64-3.44c2-2.93,4.65-7.94,7.43-13.24,7.09-13.47,12.49-23.2,17.54-25.77,29.3-14.95,110.94-31.16,141.23-13.23,7.65,4.52,21.9,42.78,24.68,50.4a2.47,2.47,0,0,1-4.64,1.7c-6.66-18.27-18.06-45.2-22.55-47.85-27.93-16.53-107.61-1.35-136.48,13.38-4,2.06-10.61,14.55-15.41,23.67-2.85,5.43-5.55,10.56-7.73,13.74A2.48,2.48,0,0,1,2715.7,1023.05Z"/></g><g id="head"><path class="cls-11" d="M2882.91,852.24c9.46,8.09,8.58,15.35,5.6,19.45s-15.45,8.48-11.53,12.76,17.6-.73,17.81,4.87S2878,906.79,2882.4,912s4.32,23.85-11.34,18-32-35.23-32-35.23l6.9-30.67Z"/><path class="cls-12" d="M2753.06,1051.72c-5.11,0-18.53-36.42-17.46-40.08,12.6-43.43,14.27-97.9,14.27-97.9l.31-.16,115.05-70.78s-5.55,77.68,3,136.52C2870.12,992.48,2757.84,1051.72,2753.06,1051.72Z"/><path class="cls-13" d="M2854.59,860.77c11.51,78.44-56,152.3-119,150.87,12.6-43.43,14.27-97.9,14.27-97.9l.31-.16Z"/><path class="cls-12" d="M2867,776.74c.2,8.5.05,18.32-.48,28.83-1.48,30.12-6,65.67-14.64,90.19-18,51.18-69.11,90.07-124.13,88.38-42.88-1.31-63.16-32-67.93-64.15-.22-1.46-.37-3-.51-4.47-1.55-17.21,1.7-37,5.57-56.15,3.27-16.27,7-32,8.64-45.17,2.08-16.85,2.91-35.08,3.88-50.56,1-16.49,4.9-24.52,11.6-29.32,9.87-7.07,21.33-20.43,35.9-27,17.44-7.94,36.41-13.8,52.52-13.36,16.91.46,35.64,9.81,52,21.86a183.4,183.4,0,0,1,23.48,20.61,140.24,140.24,0,0,1,10.39,12.07C2865.41,751.25,2866.72,761.92,2867,776.74Z"/><path class="cls-13" d="M2870.38,778.2c.16.44-2.27,6.37-5.32,13.5-4.91,11.55-11.42,26.26-11.42,26.26s6.54-15.13-2.41-17.16c-2.31-.52-12.29,2.65-14.72-2.48-1.3-2.75,1.57-10.94.83-16.87-.31-2.47-4.36-2.31-4.62-4.77-.62-5.87-1.16-11.24-1.81-13.9-1.56-6.3-12.81-.87-16-4.82-4.94-6.2,6.17-22.12,1.16-22.36-76.52,29.84-138.56,27.26-130.17-5.57,0,0-.28-3.34,1.66-4.8,9.82-6.42,22.22-16.31,36.72-22.32l43.32-2.29,60.63,9.85,17.25,2.81s2.56,6.7,6.08,15.81c4.31,11.21,10,26.08,14,36.51C2868.34,772.78,2870.26,777.89,2870.38,778.2Z"/><ellipse class="cls-13" cx="2794.78" cy="892.47" rx="32.15" ry="32.62" transform="translate(1565.62 3556.39) rotate(-82.94)"/><path class="cls-13" d="M2679.19,885.42a31.93,31.93,0,0,1-19.84,30.1c-1.55-17.21,1.7-37,5.57-56.15A32.19,32.19,0,0,1,2679.19,885.42Z"/><path class="cls-12" d="M2894.28,812.32c16.91,15.2-21.74,83.32-40.78,50.19C2834.61,829.65,2873.72,793.83,2894.28,812.32Z"/><path class="cls-14" d="M2864.3,843l-.25,0a1.64,1.64,0,0,1-1.37-1.89c.92-5.85,5.21-11.62,12.06-16.24,5.86-4,12.81-6.51,15.82-5.83a1.65,1.65,0,1,1-.74,3.21c-1.38-.32-7.15,1.24-13.24,5.35-3.52,2.38-9.6,7.36-10.65,14A1.65,1.65,0,0,1,2864.3,843Z"/><path class="cls-14" d="M2880.87,842.75a1.65,1.65,0,0,1-1.55-1.08c-1.77-4.83-7.15-6.76-10.25-6.56a1.65,1.65,0,0,1-.22-3.29c5-.35,11.41,2.83,13.56,8.71a1.64,1.64,0,0,1-1.54,2.22Z"/><path class="cls-15" d="M2842,772.86c-2-1.67-5.88-2.94-6.7-4.05-2.53-3.41,2.57-12,.05-14-6-4.72-13.85.67-17.23-1.45-4.64-2.92,2.71-13.4-3.08-20.12-55.07,19.42-113.59,7.81-129.07-3.25,1.18,28.44-11.88,88.75-14.24,96.09,2.29-23.37-16.95-46.11-12-60.06,1.6-4.49,9.22-4.06,9.81-10.59.62-6.83-15.15-18.58-4.62-27,3.42-2.71,10.23-2.81,17.46-.25-37.93-48.64-7.17-88.43,24.26-100.9,52.39-20.79,146.23,15.13,168.94,92.87-5.16,3.34-2.53,8.27-1.6,9.91,8.06,14.27,6.51,30.48,3.81,37.25C2867.88,792,2848.21,779.54,2842,772.86Z"/><path class="cls-11" d="M2896.93,795.92c-5.41,8.39-14.7,7.59-24.63,13.32-9.06,5.24-15.37,25.23-19.87,22.79-3.93-2.15,4-25.65-.35-29.22-2.72-2.22-9.69-.24-12.37-2.46-5.76-4.75,8.72-22.06,3.61-27.54,6.51-2.58,10,5.4,14.61,4.1,4.9-1.37-3.81-17.55-.81-22.32,4-6.32,15.71-2.34,19.7-7.28,4.14-5.13-22.73-22.29-1.29-27.09.93,3,2.54,7.17,6,9.53,7.57,5.22,12.17,3.07,15.07,10.51,4.29,11.06-13.63,18.75-10.92,26.75C2887.94,773.87,2902.43,787.37,2896.93,795.92Z"/><path class="cls-16" d="M2663.93,655.45s0-.44.1-1.2a9.65,9.65,0,0,1,.21-1.41,18.54,18.54,0,0,1,.45-1.87,20.32,20.32,0,0,1,.72-2.11c.28-.74.62-1.5,1-2.27s.85-1.53,1.3-2.32,1-1.52,1.56-2.24a22.16,22.16,0,0,1,1.74-2.11,23.31,23.31,0,0,1,1.86-1.86,24.77,24.77,0,0,1,3.73-2.84,19.56,19.56,0,0,1,3-1.52c.76-.29,1.2-.42,1.2-.42a1.27,1.27,0,0,1,1.26,2.12l0,0-2.93,2.92c-.41.47-.9.9-1.36,1.43s-1,1-1.49,1.62c-1,1.13-2.07,2.36-3.07,3.62-.53.62-1,1.3-1.46,1.92s-.93,1.27-1.32,1.92c-.86,1.25-1.55,2.48-2.16,3.54-.31.54-.54,1-.77,1.44a13,13,0,0,0-.59,1.18l-.53,1.08a1.27,1.27,0,0,1-1.69.58A1.28,1.28,0,0,1,2663.93,655.45Z"/><path class="cls-16" d="M2826.44,640.59l2.73,1.51c.86.49,1.9,1.1,3.09,1.86s2.56,1.54,4,2.54,3,2,4.52,3.26,3.18,2.56,4.85,3.93,3.28,3,4.85,4.63,3.13,3.39,4.64,5.15l2.18,2.72c.69.93,1.34,1.88,2,2.81,1.32,1.87,2.51,3.79,3.6,5.67s2.09,3.72,2.91,5.53,1.62,3.5,2.28,5.1,1.19,3.08,1.67,4.4.84,2.48,1.13,3.44c.6,1.91.9,3,.9,3a1.24,1.24,0,0,1-2.3.89l0,0s-.52-1-1.36-2.78c-.41-.89-.91-2-1.55-3.18s-1.27-2.61-2.08-4.07-1.6-3.09-2.58-4.73-2-3.38-3.06-5.14c-.51-.9-1.16-1.74-1.72-2.64s-1.17-1.79-1.82-2.66c-1.25-1.77-2.6-3.51-4-5.24s-2.82-3.38-4.32-4.94-3-3.1-4.46-4.57-3-2.81-4.44-4-2.81-2.44-4.12-3.48c-2.6-2.12-4.76-3.83-6.38-5l-2.48-1.89a1.23,1.23,0,0,1,1.35-2.06Z"/><path class="cls-17" d="M2891.85,770.48l-.29-.47a2.42,2.42,0,0,1-.34-.71,4.37,4.37,0,0,1-.28-1.32,6.7,6.7,0,0,1,.55-3,14.7,14.7,0,0,1,1.74-3.05,62.91,62.91,0,0,1,5.24-6,72.56,72.56,0,0,0,5.64-6.42,24.45,24.45,0,0,0,2.1-3.4,11.92,11.92,0,0,0,1-3.36,8.55,8.55,0,0,0-.24-3.16,11.52,11.52,0,0,0-1.19-2.84,8.45,8.45,0,0,0-.78-1.22c-.28-.38-.49-.78-.78-1.1-.57-.65-1-1.28-1.45-1.73l-1.36-1.49,0,0a1.24,1.24,0,0,1,1.57-1.9s.67.41,1.83,1.19a22.14,22.14,0,0,1,2,1.59,10.8,10.8,0,0,1,1.15,1.11,12.54,12.54,0,0,1,1.18,1.37,13.46,13.46,0,0,1,2.09,3.7,11.61,11.61,0,0,1,.75,4.91,14.26,14.26,0,0,1-1.29,5,22.14,22.14,0,0,1-2.62,4.3,54.93,54.93,0,0,1-6.35,6.72l-3,2.73c-.91.87-1.8,1.67-2.49,2.44a13.49,13.49,0,0,0-1.68,2.11,4.06,4.06,0,0,0-.64,1.56c-.08.25,0,.28-.06.43s.05.35.1.51c.11.33.18.51.18.51a1.25,1.25,0,0,1-2.23,1.07Z"/><path class="cls-16" d="M2663.08,722.91s-1.07.08-2.76.3a28.68,28.68,0,0,0-3,.54,13.1,13.1,0,0,0-3.41,1.3,4.15,4.15,0,0,0-1.22,1.06,2.66,2.66,0,0,0-.44,1.33,8.79,8.79,0,0,0,1.21,4.13,76.51,76.51,0,0,0,6.53,9.66,62.75,62.75,0,0,1,3.62,5.24,16.72,16.72,0,0,1,1.55,3.2,8.66,8.66,0,0,1,.26,1.06l0,.14,0,.28,0,.18,0,.37c0,.27,0,.8,0,1.18a9.3,9.3,0,0,1-.24,1.1,7.61,7.61,0,0,1-2.19,3.36,18.13,18.13,0,0,1-2.44,1.84,15.54,15.54,0,0,0-3.38,2.67,4.4,4.4,0,0,0-1,2.76,9.38,9.38,0,0,0,.39,2.76c.24.78.44,1.43.61,1.85s.25.67.25.67l0,.07a1.24,1.24,0,0,1-2.21,1.08s-.15-.23-.41-.67a15.57,15.57,0,0,1-1.06-2,12.67,12.67,0,0,1-1-3.58,7.64,7.64,0,0,1,1.2-5.21,16.61,16.61,0,0,1,4.05-4c1.39-1.06,2.55-2.14,2.67-2.94,0-.11,0-.23.06-.33s0-.06,0-.28l0-.37v-.21c0,.28,0,.07,0,.14v-.06a3.86,3.86,0,0,0-.12-.38,13,13,0,0,0-1.14-2.2c-1-1.58-2.22-3.2-3.41-4.87a62.94,62.94,0,0,1-6.73-10.61,12.31,12.31,0,0,1-1.27-6.6,6.58,6.58,0,0,1,1.52-3.38,8,8,0,0,1,2.57-1.88,14,14,0,0,1,4.62-1.2,30.42,30.42,0,0,1,3.43-.18c1,0,1.7.06,2.17.09l.74.06h0a1.24,1.24,0,0,1,0,2.47Z"/><path class="cls-18" d="M2812.13,659.1l-1.86-.38c-1.22-.28-3-.59-5.2-1-1.12-.18-2.37-.33-3.72-.52s-2.83-.32-4.4-.39a69.83,69.83,0,0,0-10.49.08,48.84,48.84,0,0,0-12,2.52,38,38,0,0,0-11.74,6.39,27.33,27.33,0,0,0-8.37,11,14,14,0,0,0-.83,3.25,19,19,0,0,0-.29,3.55,17.93,17.93,0,0,0,1.31,6.8c1.74,4.34,5.27,7.91,9.29,10.7a61.79,61.79,0,0,0,13.11,6.55,115.79,115.79,0,0,0,13.38,4.12c4.34,1.07,8.5,1.93,12.37,2.6,7.73,1.41,14.25,2.24,18.83,2.76l7.19.81h0a1.23,1.23,0,0,1-.2,2.46l-1.9-.09c-1.24-.07-3.07-.12-5.38-.29s-5.12-.39-8.35-.68-6.85-.69-10.8-1.27-8.23-1.33-12.72-2.31a120.19,120.19,0,0,1-14-3.88,63.29,63.29,0,0,1-14.2-6.92c-4.49-3.06-8.82-7.2-11.11-12.72a23,23,0,0,1-1.75-8.6,26,26,0,0,1,.3-4.29,18.18,18.18,0,0,1,1.15-4.3,32,32,0,0,1,10-12.94,41,41,0,0,1,13.28-7,53.09,53.09,0,0,1,13.09-2.26,61.31,61.31,0,0,1,11.1.41c1.64.18,3.15.47,4.55.68s2.67.52,3.82.78c2.31.54,4.09,1,5.26,1.39l1.82.54a1.23,1.23,0,0,1-.6,2.39Z"/><path class="cls-18" d="M2732.24,721.4l-1.84-.55c-1.23-.41-3-1-5.22-1.88a60.65,60.65,0,0,1-7.75-3.82,50.55,50.55,0,0,1-9.09-6.7,40.49,40.49,0,0,1-8.25-10.72,35.87,35.87,0,0,1-4-14.69,31.73,31.73,0,0,1,0-4c.05-.69.06-1.3.17-2.07l.24-1.91a44.84,44.84,0,0,1,2.11-8.06,45.33,45.33,0,0,1,8.72-14.28,52.93,52.93,0,0,1,6.16-5.73,50.35,50.35,0,0,1,7-4.53,59.13,59.13,0,0,1,15-5.69,72.57,72.57,0,0,1,14.72-2,101.35,101.35,0,0,1,13.2.49c2,.19,4,.49,5.8.73s3.56.63,5.18,1l4.5,1,3.78,1c2.29.57,4,1.21,5.25,1.57l1.84.58a1.23,1.23,0,0,1-.65,2.38H2789l-1.85-.43c-1.22-.26-3-.74-5.25-1.18l-3.75-.76-4.44-.74-5.06-.67c-1.79-.16-3.67-.39-5.63-.51a96.76,96.76,0,0,0-12.64,0,76.21,76.21,0,0,0-13.81,2.14,57.27,57.27,0,0,0-13.75,5.37,47.33,47.33,0,0,0-11.9,9.23,38.54,38.54,0,0,0-9.85,19.69l-.26,1.9c-.08.5-.1,1.17-.16,1.75-.07,1.19-.09,2.37-.06,3.55a31.48,31.48,0,0,0,3.19,13,36.49,36.49,0,0,0,7.18,9.88,54.21,54.21,0,0,0,15.39,10.56c2.07,1,3.75,1.64,4.87,2.08l1.81.66a1.24,1.24,0,0,1-.78,2.35Z"/><path class="cls-17" d="M2766.26,887.69a40.21,40.21,0,0,1-34.77-20.1,42.14,42.14,0,0,1-4.25-32.27c6-22.41,28.6-36,50.47-30.28a40.15,40.15,0,0,1,24.64,18.79,42.12,42.12,0,0,1,4.25,32.26C2801.56,875,2784.6,887.69,2766.26,887.69Zm1.31-79c-16.16,0-31.11,11.18-35.56,27.92a37.24,37.24,0,0,0,3.75,28.51,35.24,35.24,0,0,0,21.62,16.5c19.24,5,39.19-7,44.44-26.77a37.23,37.23,0,0,0-3.74-28.51,35.24,35.24,0,0,0-21.62-16.5A34.88,34.88,0,0,0,2767.57,808.67Z"/><path class="cls-17" d="M2805.31,842.88a2.47,2.47,0,0,1-1.14-4.66c31.58-16.48,69-34.14,79.32-34.3h0a2.47,2.47,0,0,1,0,4.94c-7.67.11-38.66,13.67-77.12,33.74A2.43,2.43,0,0,1,2805.31,842.88Z"/><path class="cls-17" d="M2675.24,873.37a28.62,28.62,0,0,1-7.25-.93,30.53,30.53,0,0,1-18.57-14.55c-5.42-9.3-6.79-21.21-3.75-32.66,5.67-21.32,24.89-34.85,42.85-30.15a30.53,30.53,0,0,1,18.57,14.55c5.42,9.3,6.79,21.2,3.75,32.66C2705.93,860.75,2690.86,873.37,2675.24,873.37Zm6-74.29c-13.41,0-26.46,11.16-30.78,27.42-2.71,10.19-1.53,20.72,3.23,28.9a25.67,25.67,0,0,0,15.56,12.26c15.33,4,31.86-7.94,36.82-26.64h0c2.71-10.19,1.53-20.73-3.23-28.9a25.72,25.72,0,0,0-15.56-12.27A23.94,23.94,0,0,0,2681.23,799.08Z"/><path class="cls-17" d="M2732.45,830.89A2.46,2.46,0,0,1,2730,829c-.7-3.18-4.37-7.22-8.72-8.15-3.67-.79-7.07.79-9.87,4.55a2.47,2.47,0,1,1-4-2.94c5.37-7.23,11.62-7.14,14.87-6.44,5.82,1.25,11.31,6.49,12.5,11.92a2.46,2.46,0,0,1-1.89,2.94A2.31,2.31,0,0,1,2732.45,830.89Z"/><path class="cls-5" d="M2695.56,822a2.46,2.46,0,0,1-1.91-.89,19.73,19.73,0,0,0-9.79-6.49,2.47,2.47,0,0,1,1.37-4.75,24.75,24.75,0,0,1,12.23,8.09,2.46,2.46,0,0,1-1.9,4Z"/><path class="cls-5" d="M2674.92,814.88a2.47,2.47,0,0,1-1.05-4.71,11.72,11.72,0,0,1,1.14-.42l.55-.19a2.47,2.47,0,1,1,1.87,4.57c-.3.12-.61.23-.91.32a4.46,4.46,0,0,0-.55.2A2.46,2.46,0,0,1,2674.92,814.88Z"/><path class="cls-5" d="M2795,844.93a2.46,2.46,0,0,1-2.38-1.84,27,27,0,0,0-2.5-6.22,2.47,2.47,0,0,1,4.32-2.41,31.9,31.9,0,0,1,2.95,7.37,2.47,2.47,0,0,1-1.76,3A2.27,2.27,0,0,1,2795,844.93Z"/><path class="cls-5" d="M2787.39,831.79a2.49,2.49,0,0,1-1.73-.7,30.3,30.3,0,0,0-14.26-7.57,2.47,2.47,0,0,1,1.11-4.81,35,35,0,0,1,16.6,8.84,2.47,2.47,0,0,1-1.72,4.24Z"/><path class="cls-5" d="M2758.42,823.79a2.47,2.47,0,0,1-.87-4.77,11.73,11.73,0,0,1,1.45-.44c.29-.07.58-.15.87-.25a2.47,2.47,0,0,1,1.55,4.69c-.39.13-.79.24-1.18.34a8,8,0,0,0-.94.27A2.44,2.44,0,0,1,2758.42,823.79Z"/><path class="cls-5" d="M2766.45,1140.8a2.4,2.4,0,0,1-.84-.15,2.49,2.49,0,0,1-1.59-1.85L2749.29,1064l-34.39,55.1a2.47,2.47,0,0,1-4.57-1.24l-1.4-56.48a2.47,2.47,0,0,1,4.94-.12l1.2,48.24,33.34-53.42a2.47,2.47,0,0,1,4.52.83l15.14,76.86,94-76.76a2.47,2.47,0,0,1,3.13,3.83L2768,1140.24A2.51,2.51,0,0,1,2766.45,1140.8Z"/><path class="cls-15" d="M2859.68,825.1c.47,31.67,16.73,150.07-118.17,169.63-124.59,18.07-78.94-123.09-78.94-123.09s-4.15,29.45,6.62,35.31c5.17,2.82,17-12.6,37.86-12,46.5,1.45,57.37,32.64,80.49,28.8,41-6.83,60.95-66.3,63.8-96.92C2851.48,825.38,2859.68,825.1,2859.68,825.1Z"/></g><g id="hand"><path class="cls-4" d="M2843.12,1859.06c29.25,2.3,79.17,5.78,95,4.13,13.16-1.38,42-3.27,58.86-8.83-1.05-2.92-34-7.86-69.23-6.43C2883.58,1849.73,2835.88,1858.49,2843.12,1859.06Z"/><path id="hand-2" data-name="hand" class="cls-12" d="M2871.53,1863.19c17.58-29.71,65.13-82.65,74.12-91,6.89-6.38,57.95,37.83,54.41,42.61-3,4.12-8.16,12-9.23,14.38-2.85,6.41-2.64,19.6-7.9,29.82C2954.44,1864.38,2878.07,1864.44,2871.53,1863.19Z"/><path class="cls-4" d="M2909.5,1865.65a688.11,688.11,0,0,1-69.66-3.59,2.47,2.47,0,0,1,.51-4.91c46.33,4.83,112.06,6.08,157.56-4.86a2.47,2.47,0,1,1,1.15,4.8C2973.23,1863.3,2941,1865.65,2909.5,1865.65Z"/><path class="cls-4" d="M3026.5,1845.08a2.47,2.47,0,0,1-2.09-1.15c-9.15-14.34-56.16-68.71-79.57-71.68a2.47,2.47,0,0,1,.62-4.9c26.07,3.31,74.71,60.76,83.12,73.93a2.48,2.48,0,0,1-2.08,3.8Z"/></g><path class="cls-7" d="M3027.75,3340.42H2876.38a2.72,2.72,0,0,1,0-5.43h151.37a2.72,2.72,0,1,1,0,5.43Z"/><path class="cls-7" d="M2968.76,3267.56a2.45,2.45,0,0,1-1.71-.69c-1.76-1.68-42.75-41.49-28.69-62.68,2.79-4.2,6.82-5.62,11-3.94,12.94,5.21,26.39,39.85,21.8,65.28a2.47,2.47,0,0,1-1.67,1.91A2.51,2.51,0,0,1,2968.76,3267.56Zm-22.8-63.08c-1.06,0-2.23.56-3.48,2.45-8.88,13.37,12.19,40,24.49,52.86,2-23.35-10.19-51.24-19.42-54.95A4.29,4.29,0,0,0,2946,3204.48Z"/><path class="cls-7" d="M2968.76,3267.56a1.37,1.37,0,0,1-.29,0c-1.88-.22-46.15-5.63-56.57-22.88a15.28,15.28,0,0,1-1.11-14h0a7.12,7.12,0,0,1,5.35-4.68c14-2.93,50.28,33.22,54.37,37.35a2.47,2.47,0,0,1-1.75,4.21Zm-53.35-35.11a10.39,10.39,0,0,0,.72,9.65c6.37,10.55,30.6,16.82,45.46,19.42-15.1-14.43-36.87-32.31-44.44-30.69a2.22,2.22,0,0,0-1.74,1.62Z"/><path class="cls-7" d="M2974.48,3307.38a2.47,2.47,0,0,1-.69-4.84c3.87-1.12,6.15-3,7-5.81,2.12-7.26-5.48-19.32-10.85-26.33-2.52,7.77-9.29,22.15-25,22.81-11.47.5-16.5-5.56-20.56-10.42-3.5-4.19-6-7.2-11.85-6.14a2.47,2.47,0,0,1-.89-4.86c8.65-1.61,12.83,3.41,16.53,7.84,3.88,4.64,7.6,9,16.56,8.65,17.48-.74,21.56-23.38,21.59-23.6a2.47,2.47,0,0,1,4.29-1.22c1.92,2.18,18.67,21.68,14.89,34.65-1.31,4.48-4.79,7.57-10.34,9.17A2.29,2.29,0,0,1,2974.48,3307.38Z"/><path class="cls-7" d="M2560.31,3273.33a2.46,2.46,0,0,1-2-1.06c-3.09-4.46-30-44.06-23.42-59.86,1.46-3.48,4.42-5.7,8.55-6.42a10.36,10.36,0,0,1,8.94,2.59c12.86,11.44,10.71,57.24,10.43,62.42a2.48,2.48,0,0,1-1.8,2.24A2.57,2.57,0,0,1,2560.31,3273.33Zm-14.95-62.58a7,7,0,0,0-1.1.1c-2.49.44-4,1.54-4.84,3.47-4,9.59,9.6,34.42,18.68,48.71.23-16.39-1.09-43.7-9-50.76A5.42,5.42,0,0,0,2545.36,3210.75Z"/><path class="cls-7" d="M2560.31,3273.33h0c-2.25,0-55.34-1.1-67.18-16.75A11.75,11.75,0,0,1,2491,3246c1.48-5.59,4.6-9.11,9.27-10.46,19-5.5,57.4,29.48,61.72,33.49a2.47,2.47,0,0,1-1.68,4.28Zm-55.49-33.44a11.54,11.54,0,0,0-3.18.41c-2.93.85-4.85,3.14-5.87,7h0a6.88,6.88,0,0,0,1.26,6.32c7.52,9.94,38.86,13.6,56.51,14.54C2540.86,3257.23,2517.85,3239.89,2504.82,3239.89Zm-11.44,6.76h0Z"/><path class="cls-7" d="M2544.36,3313.1h-.1a2.47,2.47,0,0,1-2.37-2.57c.27-6.42,3.88-12.34,7.71-18.62,2.56-4.22,5.18-8.52,6.76-13-9.1,8.17-18.92,9-30.79,10-9.9.85-21.12,1.81-35.53,6.87a2.47,2.47,0,1,1-1.64-4.65c15-5.28,27.06-6.31,36.75-7.14,14.28-1.22,23.72-2,33.19-14.62a2.47,2.47,0,0,1,4.44,1.48c0,8.89-4.76,16.71-9,23.61-3.48,5.72-6.77,11.13-7,16.26A2.48,2.48,0,0,1,2544.36,3313.1Z"/><g id="telephone-2" data-name="telephone"><rect class="cls-3" x="2284.84" y="3094.16" width="1054.43" height="246.83"/><g id="telephone-3" data-name="telephone"><rect class="cls-19" x="2202.41" y="2720.34" width="1227.2" height="460.18" transform="translate(5632.03 5900.85) rotate(180)"/><path class="cls-5" d="M2339.75,2877c26.21-4,64.63,29.33,57.06,51.87-4.25,12.67-24.88,19.24-24.16,26.5,2.35,23.51,43.88,64.71,74.56,70.19,15.27,2.73,8.5-31.06,31.39-32s51.11,24.13,48.14,48.5c-2.14,17.5-34.64,43.83-77.31,25.09s-110.55-82.05-126.53-125.26C2312.24,2913.07,2321.93,2879.72,2339.75,2877Z"/><path class="cls-5" d="M2515.87,2956.82s0-.57,0-1.64-.12-2.49-.24-4.41a78,78,0,0,0-2.83-15.39c-.47-1.54-1-3.14-1.6-4.75l-.95-2.46c-.16-.42-.35-.83-.53-1.25l-.27-.62-.13-.31,0-.08c0-.06.16.35.07.16l0-.05-.08-.16-2.73-5.35A21,21,0,0,0,2505,2918c-.5-.8-1-1.61-1.53-2.42a45.83,45.83,0,0,0-3.53-4.82,50.84,50.84,0,0,0-4.07-4.66c-.72-.74-1.37-1.57-2.16-2.26l-2.35-2.09c-.8-.68-1.55-1.43-2.39-2.07l-2.56-1.86c-.86-.61-1.68-1.29-2.56-1.87l-2.7-1.64c-.91-.54-1.79-1.12-2.7-1.62l-2.83-1.36c-.94-.45-1.86-.92-2.8-1.35l-2.88-1.1-2.84-1.1-2.89-.82-2.85-.8c-.94-.28-1.91-.37-2.84-.58a48.43,48.43,0,0,0-5.56-.92c-1.82-.15-3.6-.37-5.32-.46l-5,0h-1.2l-1.16.11-2.25.2-2.15.16-1,.08-1,.18-3.64.65a23.57,23.57,0,0,0-3.1.62c-3.67,1-5.83,1.54-5.83,1.54l-.25.06a2.46,2.46,0,0,1-1.62-4.63s2.12-1,5.94-2.62c1.9-.83,4.35-1.45,7.12-2.31l1.07-.32,1.11-.22,2.34-.45,2.48-.46,1.28-.23,1.33-.12,5.59-.45c1.94-.05,4,.08,6,.12a54,54,0,0,1,6.34.63c1.08.16,2.19.23,3.27.5l3.27.78,3.33.81,3.3,1.13,3.33,1.15c1.08.47,2.15,1,3.23,1.49l3.25,1.52c1.07.56,2.09,1.21,3.13,1.81l3.13,1.85c1,.66,2,1.4,2.95,2.11l2.92,2.18c.95.75,1.81,1.61,2.71,2.41l2.67,2.44c.89.81,1.64,1.75,2.45,2.62l2.38,2.66a30.5,30.5,0,0,1,2.13,2.81,56.63,56.63,0,0,1,3.9,5.77l1.72,3a23.55,23.55,0,0,1,1.52,2.93c.82,1.88,1.61,3.72,2.39,5.51l.07.17.12.28,0,.09.13.36.26.73c.17.48.35,1,.5,1.43.31.95.62,1.89.87,2.83.54,1.86.95,3.69,1.32,5.45a67.72,67.72,0,0,1,1.2,17.19c-.12,2.05-.34,3.73-.48,4.8s-.24,1.62-.24,1.62a2.48,2.48,0,0,1-4.93-.33Z"/><path class="cls-5" d="M2550.83,2959.62s0-.85,0-2.44-.06-3.78-.19-6.68a113,113,0,0,0-3.85-23.42c-.68-2.35-1.41-4.79-2.32-7.26s-1.92-5.11-3-7.5l-1.87-4c-.64-1.34-1.33-2.51-2-3.8s-1.43-2.54-2.17-3.83l-1.14-1.94c-.41-.63-.83-1.26-1.24-1.9a107,107,0,0,0-11.56-14.67,106,106,0,0,0-31-22.63,105.46,105.46,0,0,0-17.49-6.58,108.79,108.79,0,0,0-17.21-3.29,105.28,105.28,0,0,0-15.75-.54c-2.46,0-4.79.35-7,.5-2.21.31-4.34.46-6.3.86s-3.82.65-5.5,1.06-3.27.68-4.65,1.1l-3.72,1-2.72.87-2.27.72-.12,0a2.47,2.47,0,0,1-1.76-4.61l2.28-1,2.75-1.22,3.8-1.44c1.42-.57,3-1,4.79-1.61s3.69-1.05,5.75-1.58,4.31-.92,6.65-1.42c1.18-.21,2.4-.36,3.65-.55s2.52-.35,3.84-.45a98.23,98.23,0,0,1,17-.3,104.73,104.73,0,0,1,18.84,2.89,106.15,106.15,0,0,1,19.27,6.78,112.09,112.09,0,0,1,18.2,10.7,110.19,110.19,0,0,1,15.75,14.08,105.05,105.05,0,0,1,12.29,16.32l1.3,2.11,1.19,2.14c.78,1.44,1.59,2.81,2.26,4.31s1.43,2.94,2,4.33,1.14,2.74,1.69,4.08a103.87,103.87,0,0,1,4.95,16.39,102.79,102.79,0,0,1,2.21,25.22c-.12,3-.37,5.48-.55,7.07l-.29,2.42a2.47,2.47,0,0,1-4.93-.32Z"/><path class="cls-5" d="M2585.78,2962.42s0-1.13.08-3.24,0-5.07-.11-8.95a136.82,136.82,0,0,0-1.24-13.85,155.06,155.06,0,0,0-3.58-17.6,149.32,149.32,0,0,0-7-19.91q-1.22-2.64-2.45-5.35c-.84-1.79-1.76-3.41-2.65-5.15s-1.92-3.43-2.92-5.16l-1.52-2.62c-.55-.85-1.11-1.7-1.66-2.56a139.52,139.52,0,0,0-35-36.92,141.05,141.05,0,0,0-45.82-22,146.79,146.79,0,0,0-23.15-4.3,138.87,138.87,0,0,0-21.15-.58l-2.44.1-2.37.22-4.6.42-4.34.57-2.09.27-2,.37c-2.63.48-5.11.89-7.36,1.48s-4.36,1-6.2,1.56l-5,1.42-3.62,1.2-3,1-.12,0a2.47,2.47,0,0,1-1.75-4.61l3-1.31,3.64-1.56c1.46-.57,3.15-1.16,5-1.85s4-1.32,6.36-2,4.87-1.36,7.6-2l2.08-.52,2.17-.42,4.53-.89c1.56-.25,3.17-.45,4.82-.68l2.5-.34,2.56-.22a129,129,0,0,1,22.44-.27A141,141,0,0,1,2509.7,2819a143.25,143.25,0,0,1,23.92,14.13,145.09,145.09,0,0,1,20.72,18.5,143.27,143.27,0,0,1,16.21,21.44l1.72,2.77,1.58,2.82c1,1.88,2.07,3.7,3,5.65s1.89,3.83,2.68,5.67l2.29,5.42a138.74,138.74,0,0,1,9.84,54.75c-.1,4-.38,7.23-.58,9.34s-.34,3.22-.34,3.22a2.47,2.47,0,0,1-4.93-.32Z"/><path class="cls-5" d="M3274.31,3050H2982.54a4.94,4.94,0,0,1-4.94-4.94V2860.49a4.94,4.94,0,0,1,4.94-4.94h291.77a4.94,4.94,0,0,1,4.94,4.94V3045A4.94,4.94,0,0,1,3274.31,3050Zm-286.83-9.88h281.89V2865.43H2987.48Z"/><path class="cls-5" d="M3234.89,2926.17h-208a4.94,4.94,0,0,1-4-2.13l-21.34-30.73a4.94,4.94,0,1,1,8.11-5.63l19.87,28.61h202.73l18.11-28.66a4.94,4.94,0,1,1,8.35,5.28l-19.57,31A4.93,4.93,0,0,1,3234.89,2926.17Z"/><path class="cls-5" d="M3295.32,2951.86H3216a4.94,4.94,0,0,1,0-9.88h79.36a4.94,4.94,0,0,1,0,9.88Z"/><path class="cls-5" d="M3321,2993.91h-84a4.94,4.94,0,0,1,0-9.88h84a4.94,4.94,0,1,1,0,9.88Z"/><rect class="cls-20" x="2202.41" y="2717.04" width="1227.21" height="6.59"/></g></g><g id="handshake"><path class="cls-21" d="M2087.08,1563.14s35.82.83,46.42.82c6.75,0,5.61,57.83,4.15,58.06-3.23.5-9.78.84-13,1.12,3,6.28,1.7,10.41,0,12.09-6.51,6.46-24.27-10-24.27-10Z"/><path class="cls-21" d="M1980.47,1633.3c-1.39-6,16.11-31.92,16.11-31.92l32.06,20.17v20.24Z"/><path class="cls-21" d="M2009.18,1565.49c11.64.68,39.11-9.14,44-8.75s76.87,68.61,72.24,77.2a8.68,8.68,0,0,1-3.26,3.35c-3.62,2.15-9,2.15-9.77,3s-1.6,4.92-5.56,6.67c-3.4,1.49-9.58,1.11-10.86,1.82-1,.56-2.32,3.9-5.09,5.19-3.31,1.53-9.16.57-10.12,1.54s-1.3,2.83-3.75,4.74a11.53,11.53,0,0,1-7.19,2.26c-14.39,0-77.62-31.4-82.28-36-7.39-7.36-25.91-16-25.91-16S2000.35,1565,2009.18,1565.49Z"/><path class="cls-21" d="M2057.41,1538.51c-11,1.55-20.56,17.62-33.33,27.42s-22.75,14.11-23.9,16c-2.29,3.74,7.42,7.11,15.89,4.78,12.06-3.33,37.58-20.45,40.38-18.65l2.81,1.81s13.61,17.82,20,19.86c7.85,2.49,18,5.46,24.15,4.31s22.75-24.31,17.31-30.2S2076.9,1535.77,2057.41,1538.51Z"/><path class="cls-14" d="M2120.76,1627.64a1.67,1.67,0,0,1-1.2-.52c-2-2.13-6.12-7.2-10.88-13.08-5.48-6.77-11.68-14.41-15.82-19-1.24-.27-2.38-.49-3.47-.71a44.45,44.45,0,0,1-10.77-3.14c-6.12-2.78-18.79-18.07-20.47-20.12l-2.39-1.54c-1.88.08-9.38,4.15-15.44,7.44-8.27,4.49-17.65,9.58-23.82,11.28-6.74,1.86-14.92.49-17.49-2.94a3.66,3.66,0,0,1-.23-4.28c.67-1.09,2.32-2.1,6.31-4.47a176.69,176.69,0,0,0,18-12c1-.76,3.62-2.88,4.59-3.66a1.63,1.63,0,0,1,2.31.25,1.65,1.65,0,0,1-.24,2.31c-1,.79-3.65,2.94-4.66,3.72a179.93,179.93,0,0,1-18.31,12.17,34.39,34.39,0,0,0-5.2,3.39c-.1.17-.15.27.07.55,1.4,1.87,7.89,3.43,14,1.75,5.8-1.6,15-6.59,23.12-11,12.36-6.71,16.54-8.77,18.59-7.44l2.81,1.8a1.27,1.27,0,0,1,.38.35c3.8,4.66,14.7,17.24,19.45,19.4a41.05,41.05,0,0,0,10,2.91c1.27.25,2.61.51,4.06.84a1.64,1.64,0,0,1,.85.5c4.22,4.58,10.64,12.51,16.31,19.5,4.52,5.59,8.79,10.86,10.72,12.9a1.65,1.65,0,0,1-1.2,2.78Z"/><path class="cls-21" d="M1981.39,1630.83c4.57-3.47,64.77-5.49,69.72-2.11s19.59,17,18.12,21.41-7.95,13.81-15.29,16.59c-8.22,3.12-17.61-1.41-15.83-6.58-14.43,5.91-21.81-1.26-18.54-7.33-15,8.8-23.41,0-23.33-7.83C1982.57,1646.31,1977.68,1633.65,1981.39,1630.83Z"/><path class="cls-14" d="M2057.21,1661.35a1.65,1.65,0,0,1-1.29-2.68c1.65-2.05,5.18-9.26,3-11.92h-.08c-2.37,0-10.75,7.15-14.38,10.25-1.74,1.48-3.24,2.76-4.33,3.6a1.65,1.65,0,0,1-2.18-2.46c5.92-6,11.77-15.34,11.31-20.57a3.61,3.61,0,0,0-1.49-2.83c-2.65-1.88-16.57,8.17-26.11,17.71a1.65,1.65,0,0,1-2.41-2.24c7.35-8.52,8-13.42,7.69-15.58a4,4,0,0,0-1.65-2.93c-3.76-2.56-17.92,5.29-26.86,13.53a1.67,1.67,0,0,1-2.31-.07,1.65,1.65,0,0,1,0-2.31c7.14-7.14,9.62-11.66,9.55-13.51,0-.35-.11-.44-.16-.48-4.4-3.82-11.81.53-15.79,2.87l-.45.26a1.64,1.64,0,1,1-1.66-2.84l.44-.27c4.37-2.55,13.44-7.87,19.62-2.51a3.89,3.89,0,0,1,1.3,2.86,10.54,10.54,0,0,1-1.71,5.21c7.22-4.6,15.6-8.37,19.86-5.46a7.3,7.3,0,0,1,3,5.22,14.17,14.17,0,0,1-1.31,7.33c7.26-6,16.69-12.38,20.79-9.48a7,7,0,0,1,2.86,5.23c.3,3.45-1.26,7.65-3.55,11.68,5.94-4.67,10.09-6.91,12.27-4.54,4.47,4.88-1.5,14.71-2.79,16.31A1.62,1.62,0,0,1,2057.21,1661.35Z"/><path class="cls-14" d="M1992.11,1630.16a1.59,1.59,0,0,1-.78-.2,30.06,30.06,0,0,0-5.95-2.26c-.55-.16-1-.3-1.45-.44a1.65,1.65,0,0,1,1-3.12l1.33.4a32.65,32.65,0,0,1,6.59,2.53,1.64,1.64,0,0,1-.79,3.09Z"/><path class="cls-14" d="M2061.69,1662.36a1.77,1.77,0,0,1-.56-.09,26.45,26.45,0,0,1-3.9-1.9,1.63,1.63,0,0,1-.62-2.24,1.65,1.65,0,0,1,2.25-.62,24.25,24.25,0,0,0,3.39,1.66,1.64,1.64,0,0,1-.56,3.19Z"/><path class="cls-14" d="M2118.43,1625a1.65,1.65,0,0,1-.38-3.25,26.64,26.64,0,0,1,4.77-.22c.75,0,1.38,0,1.64,0a1.65,1.65,0,1,1,.29,3.28c-.31,0-1,0-1.93,0a33.61,33.61,0,0,0-4,.13A1.73,1.73,0,0,1,2118.43,1625Z"/><path class="cls-14" d="M2105.74,1643.21l-.26,0a1.64,1.64,0,1,1,.32-3.27c.3,0,1.64-.38,2.62-.65a33.53,33.53,0,0,1,5.1-1.13,1.64,1.64,0,1,1,.32,3.27,33.25,33.25,0,0,0-4.55,1A16,16,0,0,1,2105.74,1643.21Z"/><path class="cls-14" d="M2087.08,1651.36a1.65,1.65,0,0,1,0-3.29,14.46,14.46,0,0,0,1.5-.23,35.82,35.82,0,0,1,7.45-.72,1.65,1.65,0,0,1,0,3.3h0a32.18,32.18,0,0,0-6.8.65A12.11,12.11,0,0,1,2087.08,1651.36Z"/><path class="cls-14" d="M2080.79,1657.14a2,2,0,0,1-.34,0,21.24,21.24,0,0,0-7.76,0,1.65,1.65,0,1,1-.58-3.24,24.5,24.5,0,0,1,9,0,1.64,1.64,0,0,1-.33,3.25Z"/><path class="cls-4" d="M2146.85,1707.66a2.29,2.29,0,0,1-.64-.08,2.46,2.46,0,0,1-1.75-3c2.47-9.28-7.25-120-15.26-142.27a2.47,2.47,0,1,1,4.64-1.67c7.77,21.58,18.48,133.6,15.39,145.21A2.46,2.46,0,0,1,2146.85,1707.66Z"/><path class="cls-14" d="M2095.33,1595.34a9.75,9.75,0,0,1-1.95-.16,1.65,1.65,0,1,1,.68-3.22c2.82.59,11.66-1.12,15.26-4.51a1.64,1.64,0,0,1,2.25,2.4C2107.66,1593.53,2099.75,1595.34,2095.33,1595.34Z"/></g><path class="cls-3" d="M3685.11,3341H1235.62a3.3,3.3,0,0,1,0-6.59H3685.11a3.3,3.3,0,0,1,0,6.59Z"/><g id="woman"><g id="legs-2" data-name="legs"><path class="cls-12" d="M1353.41,3206.5c-7.1,44.59,10.48,93.52,45.72,98.11,10.89,9.21,4.78,20.45,4.78,20.45s-63.49,1.54-115.93,1.54c-7.56,0-20,1.63-19.18-7.89,1.63-20.89,19.8-39,18.17-98.14C1299.06,2986.06,1395.32,2943.4,1353.41,3206.5Z"/><path class="cls-22" d="M1414.51,3334.41H1277.45c-7.56,0-18.73-14.29-1.73-40.42,0,0,1.84,21.24,11.9,19.57,8.35-1.38,30.78-6.34,39.52-8.89,16-4.69,52.93-7.69,83.25,1.67C1422.08,3310,1421.53,3334.41,1414.51,3334.41Z"/><path class="cls-12" d="M1824.65,3220.57s15,32.5,35.64,47.63c18,13.21,73.65,26.29,108.9,30.89,21.47,2.8,30,26,30,26s-158.31,1.54-210.74,1.54c-7.56,0-18.9,1.66-19.19-7.89-.7-23.08,9.29-20.64,8.08-38.3C1773.84,3228.59,1786.9,3081.94,1824.65,3220.57Z"/><path class="cls-22" d="M2009.83,3334.41H1778c-7.56,0-15.43-16.7-5.41-34.86,0,0,86.06,10.2,136.24,10.9,28.6.41,42.25-15.26,42.25-15.26,21.48,2.81,56.14,9,58.78,11.15C2019.33,3314.07,2016.85,3334.41,2009.83,3334.41Z"/><g id="legs-3" data-name="legs"><path class="cls-12" d="M1623.91,2459.35c1.23,37.6-3.16,197.72,0,244.65,15.5,229.25,151.34,523.44,151.93,554.37.2,11.75,67.48-2.39,65.87-14.1-47.66-347-49.34-641.24-47.6-713.58.54-21.9-19.39-386.93-55-633.49-20.58-142.41-55.33-187.07-90.37-279.15-54-33.63-218,62.87-218,62.87C1430.14,1724.16,1623.65,2451.42,1623.91,2459.35Z"/><path class="cls-12" d="M1286.24,3247.63c.31,12,64.1-13.86,64.34-17.78,6.05-98.77,170-696.11,178.53-767.59,6.78-57,146-804.86,134.42-844.21-54-33.63-220,31.66-220,31.66-.57,43.24-110.38,158-117.32,275.42-7.45,126.39,35,430.22,27.71,518.18-3.2,38.37-56.19,137.92-65.44,231.69C1275.17,2809.54,1283.82,3153.33,1286.24,3247.63Z"/></g></g><path id="skirt" class="cls-23" d="M1695.63,1605.34c9,14.32,71.13,200.93,82.58,283.39,9.49,68.34,37.07,585.5,30.72,615.59-7.57,35.89-471.74,22-520.49,1.89-6.88-2.85,29.49-103.08,30.27-125.17,1.73-49.22.59-422.39,3.39-477.76,5.07-100.4,61.47-178,98.05-257.33C1455.15,1570,1695.63,1605.34,1695.63,1605.34Z"/><g id="arm"><path class="cls-21" d="M2066.16,1069.05c-3,43.35-44.08,68.5-44.75,73.81-2.1,16.68,19.28,277.31-58.44,330.3-24.26,16.54-72.73,6.35-102.32-10.09-10-5.57,23-91.91,35.49-91.86,17,.07,74.95-131.69,65.16-246.14-2.2-25.77,3-48.16,1.8-64.29C1962.41,1051,2066.92,1058.06,2066.16,1069.05Z"/><path class="cls-21" d="M1952,1028.55c-2.29,10.18-.41,73.35,9.88,83.23,5,4.82,32.76-84.81,22.18-88.25-3.16-1,4.08-20.14,5.15-34.91.71-9.94-3.1-17.39-8.23-18-3.27-.37-4.62,12.31-8.1,20.64C1968.7,1001.32,1952.5,1026.4,1952,1028.55Z"/><path class="cls-24" d="M1989,1001.06V988.77h47.13v12.29a6,6,0,0,0,4.61,5.79,18.77,18.77,0,0,1,14.16,18.2v56.09a18.76,18.76,0,0,1-18.77,18.76H1989a18.77,18.77,0,0,1-18.77-18.76v-56.09a18.78,18.78,0,0,1,14.17-18.2A6,6,0,0,0,1989,1001.06Z"/><rect class="cls-2" x="1970.22" y="1034.63" width="53.97" height="46.51" transform="translate(3994.41 2115.77) rotate(180)"/><rect class="cls-19" x="1981.23" y="977.11" width="61.7" height="23.32" rx="3.08" transform="translate(4024.16 1977.54) rotate(180)"/><path class="cls-5" d="M2034.45,999.26a2.47,2.47,0,0,1-2.46-2.47v-10a2.47,2.47,0,1,1,4.93,0v10A2.47,2.47,0,0,1,2034.45,999.26Z"/><path class="cls-5" d="M2025.77,999.26a2.48,2.48,0,0,1-2.47-2.47v-10a2.47,2.47,0,0,1,4.94,0v10A2.47,2.47,0,0,1,2025.77,999.26Z"/><path class="cls-5" d="M2017.09,999.26a2.48,2.48,0,0,1-2.47-2.47v-10a2.47,2.47,0,0,1,4.94,0v10A2.48,2.48,0,0,1,2017.09,999.26Z"/><path class="cls-5" d="M2008.41,999.26a2.48,2.48,0,0,1-2.47-2.47v-10a2.47,2.47,0,0,1,4.94,0v10A2.48,2.48,0,0,1,2008.41,999.26Z"/><g id="hand-3" data-name="hand"><path class="cls-21" d="M2064.48,1015.49c.48,1.58,5.29-.17,7.2,3.68,6.57,13.24.79,51.25-2.51,55.49-2.4,3.09-28.55,7.53-33.3,6.06-4.31-1.35-23.14-12.45-23.11-22.19,0-6.16,15.44-20,35.93-33.43-12.34,5.06-24.64,12.4-30.33,12.48a5.34,5.34,0,0,1-5.38-6.75c.89-3.46,11.46-14,24.33-22.76,10.34-7,18.6-12,24.59-12.73,3-.39,6.56,4.18,6.43,9.23S2064.19,1014.53,2064.48,1015.49Z"/><path class="cls-14" d="M2069.55,1035.51l-2.47.9c-1.54.55-3.74,1.49-6.35,2.59s-5.6,2.57-8.8,4.14-6.52,3.38-9.82,5.25-6.54,3.84-9.46,5.83c-1.45,1-2.88,2-4.16,2.93s-2.47,1.93-3.53,2.85-2,1.79-2.69,2.62a13,13,0,0,0-1.69,2.24,6.47,6.47,0,0,0-.67,1.53c-.06.35-.1.54-.1.54l0,.19a.82.82,0,0,1-1,.65.83.83,0,0,1-.66-.84s0-.29,0-.83a7.44,7.44,0,0,1,.62-2.13,16.57,16.57,0,0,1,1.7-2.76,27.57,27.57,0,0,1,2.68-3.07,67,67,0,0,1,7.69-6.43c3-2.11,6.24-4.21,9.58-6.16,1.68-1,3.39-1.88,5.08-2.76s3.38-1.69,5-2.46c3.28-1.54,6.46-2.74,9.19-3.74s5.07-1.63,6.73-2.07c.83-.23,1.47-.34,1.91-.44l.67-.15a.83.83,0,0,1,1,.63A.84.84,0,0,1,2069.55,1035.51Z"/><path class="cls-14" d="M2072.36,1056.77l-.54.11c-.36.06-.86.18-1.48.32-1.25.28-3.05.84-5.2,1.5-4.29,1.38-9.94,3.52-15.52,5.84-2.79,1.15-5.56,2.37-8.12,3.56s-4.94,2.32-6.89,3.42a31.8,31.8,0,0,0-4.47,2.84,9,9,0,0,0-1,.92l-.21.31-.2.24a.79.79,0,0,1-1.12.12.81.81,0,0,1-.23-.94s.11-.23.3-.66a7.8,7.8,0,0,1,1.07-1.41,27.49,27.49,0,0,1,4.5-3.6c1-.64,2-1.3,3.2-2s2.36-1.37,3.66-2c2.56-1.34,5.36-2.63,8.2-3.83s5.72-2.29,8.48-3.18,5.37-1.59,7.63-2.13a44.66,44.66,0,0,1,5.57-1,14.36,14.36,0,0,1,1.59-.1l.55,0a.83.83,0,0,1,.19,1.64Z"/><path class="cls-14" d="M2065.12,1076.72a15.19,15.19,0,0,1-1.43.75,26.1,26.1,0,0,1-3.28,1.26,25.45,25.45,0,0,1-3.44.8,11.62,11.62,0,0,1-1.62.15.43.43,0,0,1-.43-.42.44.44,0,0,1,.26-.39s.59-.24,1.47-.57,2.08-.73,3.27-1.13,2.42-.72,3.35-.93,1.58-.29,1.58-.29a.42.42,0,0,1,.47.36A.43.43,0,0,1,2065.12,1076.72Z"/></g><path class="cls-2" d="M1860.65,1463.07c-39.23-13-126.21-83.42-205.47-162.41-117.11-116.69-18.11-185.9,46.13-146,48.2,29.92,205.73,209.13,210,222C1920.6,1404.78,1878.54,1469,1860.65,1463.07Z"/></g><g id="hair"><path class="cls-22" d="M1490.26,932.11c-48.11,45.38,39.48,125.52,15,180.59-26.53,59.76-114.39,56.11-145.34,115.56-28.62,55,67.18,154.4-2.2,270.49-27.06,45.28-96.4,80.61-172.91,35.87-75-43.85-153.59-217.27-84.51-317,68.64-99.13,199.91-76.79,238.88-119.38,44-48-51.46-122.89,28.66-171.42a163,163,0,0,1,98.93-23.58C1497.47,905.7,1496.77,926,1490.26,932.11Z"/><path class="cls-25" d="M1464.19,934.91l-1.26,1.57-.69.87a10.5,10.5,0,0,0-.66,1.11,18.07,18.07,0,0,0-1.47,2.87c-.23.58-.48,1.19-.74,1.83s-.4,1.37-.63,2.11a38.82,38.82,0,0,0-1.06,4.93,73.26,73.26,0,0,0-.7,12.59c.16,9.5,1.68,21,3.76,34.17s4.83,28,6.39,44.42a162.11,162.11,0,0,1,.65,25.77c-.65,8.89-2.24,18.3-6.84,26.9l-.41.81-.1.2a2.21,2.21,0,0,1-.14.24l-.24.38-.94,1.49a31.26,31.26,0,0,1-2,3l-2.22,3-2.4,2.78a107,107,0,0,1-10.62,10.33,230.54,230.54,0,0,1-24.51,18c-17.24,11.27-35.79,21.6-53.88,33.19a257.18,257.18,0,0,0-26.24,18.87,108.81,108.81,0,0,0-11.65,11.16,59.59,59.59,0,0,0-9.17,13c-4.83,9.57-7.05,20.25-8.13,31a205.37,205.37,0,0,0-.2,32.24c1.38,21.41,4.57,42.39,7.16,62.76s4.79,40.17,4.91,59.1a197.52,197.52,0,0,1-1.63,27.52,125.08,125.08,0,0,1-6,25.13,89.41,89.41,0,0,1-11,21.11,80,80,0,0,1-14.73,15.66,104.65,104.65,0,0,1-30.45,16.72,166.59,166.59,0,0,1-21.53,6l-7.77,1.42a.82.82,0,0,1-1-.66.83.83,0,0,1,.65-1h0l7.69-1.49a165.09,165.09,0,0,0,21.21-6.11,102.38,102.38,0,0,0,29.66-16.66,82.48,82.48,0,0,0,24.82-35.88,122.51,122.51,0,0,0,5.83-24.6,196.7,196.7,0,0,0,1.51-27.15c-.18-18.72-2.4-38.42-5.1-58.74s-5.92-41.33-7.38-62.94a207.17,207.17,0,0,1,.09-32.76,110.38,110.38,0,0,1,2.76-16.37,75.1,75.1,0,0,1,5.76-15.71,63.2,63.2,0,0,1,9.68-13.71,111.71,111.71,0,0,1,12-11.44,258.49,258.49,0,0,1,26.61-19c18.24-11.61,36.8-21.88,54-33a227.25,227.25,0,0,0,24.27-17.68,104.08,104.08,0,0,0,10.39-10l2.33-2.68,2.09-2.77a32.2,32.2,0,0,0,2-2.91l1-1.5.24-.37.08-.14.1-.19.38-.77c4.36-8.06,6-17.13,6.6-25.8a161.21,161.21,0,0,0-.56-25.37c-1.55-16.28-4.11-31.11-6.07-44.32s-3.41-24.81-3.49-34.48a75.15,75.15,0,0,1,.83-12.89,38.68,38.68,0,0,1,1.15-5.13c.24-.77.39-1.53.68-2.21l.8-1.94a20.69,20.69,0,0,1,1.65-3.14,13.37,13.37,0,0,1,.75-1.2l.7-.86,1.27-1.56a.82.82,0,0,1,1.28,1Z"/><path class="cls-25" d="M1450.94,920.27l-2,.54c-1.3.34-3.22.88-5.65,1.69a76.35,76.35,0,0,0-20,9.62A46.29,46.29,0,0,0,1412.14,943a45.55,45.55,0,0,0-7.45,16.79,80,80,0,0,0-1.55,21.09,226.3,226.3,0,0,0,2.63,23.56c1.27,8.2,2.81,16.72,4.09,25.63a177.76,177.76,0,0,1,2.17,27.84c-.14,9.61-1.61,19.69-5.78,29.08a55.92,55.92,0,0,1-8.14,13.17,93.61,93.61,0,0,1-11.17,11c-16,13.69-35.66,23.41-55.63,32.17s-40.68,16.83-60,27.39a204.88,204.88,0,0,0-27.66,17.84A160.83,160.83,0,0,0,1220,1211a155.46,155.46,0,0,0-18.18,26.39c-2.57,4.63-4.87,9.37-7,14.17s-4.13,9.64-6,14.43a326.4,326.4,0,0,0-16.25,57.31,332.94,332.94,0,0,0-5.51,53.13c-.17,8.27-.06,16.21.32,23.75s1,14.67,1.76,21.36a291,291,0,0,0,6.06,34.3c2.3,9.38,4.58,16.63,6.3,21.51.8,2.46,1.55,4.3,2,5.56l.71,1.9v0a.82.82,0,0,1-1.54.58l-.73-1.9c-.47-1.27-1.25-3.11-2.09-5.58-1.78-4.9-4.16-12.18-6.57-21.62a293.42,293.42,0,0,1-6.48-34.49,315.7,315.7,0,0,1-2.34-45.45,335.62,335.62,0,0,1,5.35-53.58,329,329,0,0,1,16.19-57.88c1.91-4.87,3.88-9.78,6-14.58s4.44-9.72,7-14.44a159.77,159.77,0,0,1,18.45-27,156.91,156.91,0,0,1,24.1-22.88,208.9,208.9,0,0,1,28.14-18c19.63-10.63,40.4-18.65,60.35-27.35s39.28-18.23,55-31.58a89.41,89.41,0,0,0,10.85-10.62,52.39,52.39,0,0,0,7.78-12.51c4-8.94,5.47-18.63,5.63-28a175.54,175.54,0,0,0-2.06-27.43c-1.25-8.85-2.76-17.37-4-25.61a209.84,209.84,0,0,1-2.51-23.85,82.5,82.5,0,0,1,1.77-21.68,47.94,47.94,0,0,1,7.94-17.49,48.77,48.77,0,0,1,11.79-11.27,77.76,77.76,0,0,1,20.53-9.69c2.5-.81,4.43-1.33,5.72-1.66l2-.53a.82.82,0,1,1,.43,1.59Z"/><path class="cls-25" d="M1471.16,919.5s-1.48.65-2.92,1.39-2.83,1.55-2.83,1.55a1.12,1.12,0,1,1-1.14-1.92h0s1.46-.85,3-1.59,3-1.42,3-1.42h0a1.1,1.1,0,0,1,.87,2Z"/><path class="cls-25" d="M1453.23,932.77l-.79,1c-.46.59-1,1.4-1.61,2.23-1.13,1.66-2.1,3.42-2.1,3.42a1.18,1.18,0,1,1-2.07-1.14h0s1-1.85,2.22-3.59c.6-.87,1.23-1.72,1.72-2.34l.82-1a1.16,1.16,0,0,1,1.63-.18,1.15,1.15,0,0,1,.18,1.62Z"/><path class="cls-25" d="M1441.81,962.44l-.46,4.91a1.26,1.26,0,1,1-2.51-.23h0l.49-4.92a1.25,1.25,0,0,1,2.48.25Z"/><path class="cls-25" d="M1441.08,978.71l.25,6.58a1.31,1.31,0,0,1-2.62.09h0l-.21-6.59a1.29,1.29,0,0,1,2.58-.08Z"/><path class="cls-25" d="M1442.75,1001.57l1,8.17a1.37,1.37,0,1,1-2.72.33h0l-1-8.17a1.35,1.35,0,0,1,2.69-.32Z"/><path class="cls-25" d="M1446.86,1034.26l.52,4.91a1.4,1.4,0,1,1-2.79.29h0l-.5-4.91a1.39,1.39,0,1,1,2.77-.29Z"/><path class="cls-25" d="M1448.18,1050.77s0,1.66.07,3.33,0,3.33,0,3.33a1.42,1.42,0,1,1-2.84-.06h0s0-1.62,0-3.25l-.06-3.25v0a1.41,1.41,0,0,1,2.82-.06Z"/><path class="cls-25" d="M1445.67,1074.08l-.46,1.26-.52,1.27-.32.71-.36.73-1.85,3.68a1.44,1.44,0,1,1-2.58-1.3h0s.92-1.84,1.85-3.67l.33-.65c.1-.22.19-.44.29-.65l.48-1.16.42-1.16,0,0a1.43,1.43,0,1,1,2.69,1Z"/><path class="cls-25" d="M1427.69,1102.17l-3.34,3.63a1.47,1.47,0,1,1-2.16-2h0l3.35-3.63a1.46,1.46,0,1,1,2.15,2Z"/><path class="cls-25" d="M1416,1113.94l-5,4.32a1.48,1.48,0,0,1-2-2.24h0l5-4.31a1.48,1.48,0,1,1,1.94,2.23Z"/><path class="cls-25" d="M1397.89,1128.48l-6.72,4.75a1.51,1.51,0,1,1-1.74-2.46h0l6.73-4.74a1.5,1.5,0,0,1,1.73,2.46Z"/><path class="cls-25" d="M1370.35,1146.67l-4.22,2.57a1.53,1.53,0,0,1-1.6-2.62h0l4.22-2.56a1.53,1.53,0,1,1,1.6,2.61Z"/><path class="cls-25" d="M1356.22,1155.17l-5.67,3.35a1.56,1.56,0,0,1-1.58-2.68h0l5.68-3.34a1.55,1.55,0,1,1,1.57,2.67Z"/><path class="cls-25" d="M1336.39,1166.89l-7.06,4.23a1.57,1.57,0,0,1-1.62-2.7h0l7.07-4.22a1.56,1.56,0,0,1,2.15.54A1.58,1.58,0,0,1,1336.39,1166.89Z"/><path class="cls-25" d="M1308.56,1184.3l-4.08,2.79a1.6,1.6,0,0,1-1.81-2.65h0l4.08-2.78a1.6,1.6,0,0,1,1.81,2.64Z"/><path class="cls-25" d="M1295.24,1193.8l-5.18,4.06a1.62,1.62,0,1,1-2-2.55h0l5.19-4a1.61,1.61,0,0,1,2,2.54Z"/><path class="cls-25" d="M1277.91,1208.69s-1.44,1.42-2.84,2.9-2.74,3-2.74,3a1.65,1.65,0,0,1-2.47-2.18h0s1.38-1.56,2.82-3.07,2.92-3,2.92-3h0a1.63,1.63,0,1,1,2.29,2.33Z"/><path class="cls-25" d="M1258.65,1234.53l-1,2.19-1,2.22v0a1.62,1.62,0,0,1-3-1.26s.48-1.17,1-2.31,1.07-2.28,1.07-2.28a1.62,1.62,0,1,1,2.94,1.38h0Z"/><path class="cls-25" d="M1253.12,1249.66l-1.63,6.38a1.59,1.59,0,0,1-3.09-.79l1.61-6.38a1.6,1.6,0,1,1,3.11.78Z"/><path class="cls-25" d="M1248.41,1272l-1,8.16a1.57,1.57,0,1,1-3.11-.39l1-8.17a1.58,1.58,0,0,1,3.13.39Z"/><path class="cls-25" d="M1246.45,1304.58l.18,4.94a1.53,1.53,0,1,1-3.06.11l-.2-4.93a1.54,1.54,0,1,1,3.08-.12Z"/><path class="cls-25" d="M1247.47,1320.9l.72,6.55a1.51,1.51,0,0,1-3,.33l-.73-6.55a1.52,1.52,0,1,1,3-.33Z"/><path class="cls-25" d="M1250.53,1343.65l1.37,8.12a1.49,1.49,0,1,1-2.93.49l-1.38-8.11a1.49,1.49,0,1,1,2.94-.5Z"/><path class="cls-25" d="M1255.93,1376.18l.65,4.89a1.45,1.45,0,0,1-2.87.39l-.66-4.89a1.45,1.45,0,1,1,2.88-.39Z"/><path class="cls-25" d="M1257.71,1392.67l.31,6.57a1.43,1.43,0,1,1-2.85.14l-.32-6.58a1.43,1.43,0,0,1,2.86-.14Z"/><path class="cls-25" d="M1257.39,1415.9s-.21,2.07-.51,4.13-.67,4.12-.67,4.12a1.41,1.41,0,0,1-1.63,1.13,1.4,1.4,0,0,1-1.12-1.63s.36-2,.64-4,.49-4,.49-4a1.41,1.41,0,0,1,2.81.29h0Z"/><path class="cls-25" d="M1248.94,1448.05l-2,4.49a1.34,1.34,0,0,1-2.45-1.1l2-4.51A1.36,1.36,0,1,1,1249,1448Z"/><path class="cls-25" d="M1241.37,1462.85l-3.48,5.59a1.29,1.29,0,0,1-2.19-1.35l3.44-5.61a1.32,1.32,0,0,1,1.8-.44,1.3,1.3,0,0,1,.43,1.8Z"/><path class="cls-25" d="M1228.14,1481.91l-5.24,6.35a1.2,1.2,0,0,1-1.86-1.53l5.2-6.38a1.24,1.24,0,0,1,1.73-.18,1.23,1.23,0,0,1,.18,1.73Z"/><path class="cls-25" d="M1205.84,1506.29l-3.58,3.41a1.1,1.1,0,0,1-1.52-1.59l3.55-3.43a1.11,1.11,0,1,1,1.55,1.6Z"/><path class="cls-25" d="M1472.75,939.67s-.15.38-.36.94-.48,1.32-.73,2.09c-.49,1.53-.87,3.1-.87,3.1a1.12,1.12,0,1,1-2.17-.53h0s.41-1.64.93-3.24c.27-.8.55-1.59.78-2.18l.38-1a1.1,1.1,0,0,1,2,.79Z"/><path class="cls-25" d="M1469.21,961.83s0,2,.19,4.06.37,4.05.37,4.05a1.19,1.19,0,1,1-2.36.27h0s-.22-2.07-.35-4.15-.18-4.16-.18-4.16h0a1.17,1.17,0,0,1,2.33,0Z"/><path class="cls-25" d="M1474.58,994l1.31,4.76a1.27,1.27,0,0,1-2.45.67h0l-1.28-4.77a1.25,1.25,0,1,1,2.42-.66Z"/><path class="cls-25" d="M1479.15,1009.72l1.95,6.29a1.32,1.32,0,0,1-.87,1.66,1.34,1.34,0,0,1-1.66-.88h0l-1.91-6.3a1.3,1.3,0,0,1,2.49-.77Z"/><path class="cls-25" d="M1486,1031.76l2.3,7.91a1.38,1.38,0,0,1-2.65.77h0l-2.27-7.91a1.37,1.37,0,1,1,2.63-.76Z"/><path class="cls-25" d="M1493.81,1063.92l.69,4.89a1.41,1.41,0,0,1-2.79.4h0l-.68-4.89a1.39,1.39,0,0,1,1.19-1.58A1.4,1.4,0,0,1,1493.81,1063.92Z"/><path class="cls-25" d="M1495.31,1080.49s0,1.67,0,3.35-.18,3.35-.18,3.35a1.42,1.42,0,1,1-2.84-.21h0s.12-1.61.17-3.23,0-3.24,0-3.24a1.42,1.42,0,1,1,2.84,0Z"/><path class="cls-25" d="M1491.71,1103.68s0,.12-.12.33l-.38.91c-.32.75-.8,1.73-1.32,2.67a36.18,36.18,0,0,1-2.33,3.6l0,0a1.45,1.45,0,0,1-2.32-1.74h0a32.8,32.8,0,0,0,2.14-3.31,26.72,26.72,0,0,0,1.2-2.4l.33-.8c.09-.21.13-.33.13-.33a1.44,1.44,0,1,1,2.69,1Z"/><path class="cls-25" d="M1469,1128.08l-4.09,2.77a1.48,1.48,0,1,1-1.66-2.45h0l4.1-2.75a1.47,1.47,0,0,1,1.65,2.44Z"/><path class="cls-25" d="M1455,1137l-5.76,3.33a1.5,1.5,0,0,1-1.51-2.6h0l5.77-3.32A1.49,1.49,0,0,1,1455,1137Z"/><path class="cls-25" d="M1434.79,1148.23l-7.28,3.85a1.52,1.52,0,0,1-1.43-2.69h0l7.28-3.84a1.52,1.52,0,0,1,1.42,2.68Z"/><path class="cls-25" d="M1405.7,1163.63l-4.34,2.36a1.55,1.55,0,1,1-1.48-2.72h0l4.34-2.36a1.55,1.55,0,0,1,1.48,2.72Z"/><path class="cls-25" d="M1391.36,1171.61l-5.68,3.34a1.57,1.57,0,1,1-1.59-2.7h0l5.69-3.33a1.56,1.56,0,1,1,1.58,2.69Z"/><path class="cls-25" d="M1371.93,1183.74l-6.69,4.79a1.59,1.59,0,0,1-1.86-2.58h0l6.7-4.78a1.59,1.59,0,1,1,1.85,2.58Z"/><path class="cls-25" d="M1347.42,1205s-.78.92-1.52,1.88-1.44,1.92-1.44,1.92a1.62,1.62,0,0,1-2.65-1.88h0s.74-1,1.52-2,1.59-2,1.59-2h0a1.62,1.62,0,0,1,2.48,2.09Z"/><path class="cls-25" d="M1339,1218.44l-.37.93c-.22.55-.49,1.29-.73,2-.5,1.5-.85,3-.85,3a1.64,1.64,0,1,1-3.2-.73h0v0s.39-1.67.93-3.3c.27-.82.56-1.62.8-2.22s.39-1,.39-1a1.64,1.64,0,1,1,3,1.22Z"/><path class="cls-25" d="M1335.65,1240.46s0,2,0,4.07.13,4.07.13,4.07v0a1.63,1.63,0,0,1-3.25.12s-.07-2.08-.15-4.16,0-4.15,0-4.15h0a1.64,1.64,0,1,1,3.27,0Z"/><path class="cls-25" d="M1338.24,1273l.7,4.89a1.6,1.6,0,1,1-3.17.46l-.71-4.88a1.61,1.61,0,1,1,3.18-.47Z"/><path class="cls-25" d="M1340.75,1289.24l1.11,6.49a1.59,1.59,0,0,1-3.13.54l-1.12-6.49a1.59,1.59,0,0,1,3.14-.54Z"/><path class="cls-25" d="M1344.72,1311.94l1.42,8.1a1.56,1.56,0,0,1-3.08.55l-1.44-8.11a1.57,1.57,0,1,1,3.09-.55Z"/><path class="cls-25" d="M1350.11,1344.47l.7,4.89a1.54,1.54,0,0,1-3,.44l-.71-4.89a1.54,1.54,0,1,1,3-.44Z"/><path class="cls-25" d="M1352.26,1360.85l.69,6.55a1.52,1.52,0,0,1-3,.32l-.7-6.55a1.52,1.52,0,1,1,3-.32Z"/><path class="cls-25" d="M1354.16,1383.93l.28,8.22a1.5,1.5,0,0,1-3,.1l-.28-8.22a1.5,1.5,0,1,1,3-.11Z"/><path class="cls-25" d="M1353.56,1417l-.53,4.91a1.47,1.47,0,0,1-2.92-.31l.52-4.91a1.47,1.47,0,1,1,2.93.31Z"/><path class="cls-25" d="M1351.25,1433.47l-1.37,6.45a1.45,1.45,0,1,1-2.84-.6l1.35-6.45a1.46,1.46,0,0,1,2.86.6Z"/><path class="cls-25" d="M1345.19,1455.89s-.7,2-1.46,3.9-1.57,3.85-1.57,3.85a1.43,1.43,0,1,1-2.63-1.12s.79-1.87,1.53-3.78,1.42-3.82,1.42-3.82a1.44,1.44,0,1,1,2.71,1h0Z"/><path class="cls-25" d="M1330.24,1485.57l-2.87,4a1.41,1.41,0,1,1-2.29-1.63l2.86-4a1.41,1.41,0,1,1,2.3,1.63Z"/><path class="cls-25" d="M1319.92,1498.61s-1.13,1.23-2.29,2.42-2.36,2.35-2.36,2.35a1.39,1.39,0,1,1-1.93-2s1.16-1.13,2.29-2.3,2.23-2.37,2.23-2.37a1.4,1.4,0,0,1,2.07,1.88h0Z"/><path class="cls-25" d="M1302.48,1514.05s-1.7,1.22-3.44,2.36-3.52,2.22-3.52,2.22a1.36,1.36,0,1,1-1.41-2.32s1.73-1.06,3.42-2.19,3.35-2.31,3.35-2.31a1.38,1.38,0,0,1,1.61,2.24Z"/><path class="cls-25" d="M1272.85,1529.09l-4.72,1.47a1.28,1.28,0,0,1-.77-2.45l4.71-1.49a1.3,1.3,0,1,1,.78,2.47Z"/><path class="cls-25" d="M1256.75,1533.21s-1.63.29-3.28.54-3.3.45-3.3.45a1.23,1.23,0,0,1-1.37-1.08,1.22,1.22,0,0,1,1.07-1.37s1.62-.21,3.22-.46,3.22-.55,3.22-.55a1.25,1.25,0,0,1,.46,2.46h0Z"/><path class="cls-25" d="M1233.56,1535s-2.08,0-4.15-.18-4.15-.34-4.15-.34a1.18,1.18,0,0,1,.23-2.34s2,.2,4.06.31,4.07.16,4.07.16a1.2,1.2,0,1,1,0,2.39h0Z"/><path class="cls-25" d="M1200.93,1529l-4.58-1.84a1.1,1.1,0,0,1,.81-2l4.59,1.82a1.11,1.11,0,1,1-.82,2.07Z"/><path class="cls-25" d="M1450.5,911.47l-6.45,1.33a1.11,1.11,0,0,1-.45-2.18h0l6.46-1.3a1.1,1.1,0,1,1,.43,2.15Z"/><path class="cls-25" d="M1428.35,917.23s-1.93.65-3.84,1.37-3.81,1.48-3.81,1.48a1.17,1.17,0,0,1-.89-2.17h0s1.93-.77,3.88-1.49,3.91-1.37,3.91-1.37a1.16,1.16,0,0,1,1.47.72A1.18,1.18,0,0,1,1428.35,917.23Z"/><path class="cls-25" d="M1399.13,931.44l-4,2.85a1.25,1.25,0,1,1-1.45-2h0l4-2.83a1.24,1.24,0,0,1,1.43,2Z"/><path class="cls-25" d="M1386.46,941.61s-1.17,1.13-2.28,2.3-2.18,2.4-2.18,2.4a1.3,1.3,0,1,1-2-1.7h0s1.11-1.27,2.27-2.47,2.37-2.36,2.37-2.36h0a1.28,1.28,0,1,1,1.77,1.85Z"/><path class="cls-25" d="M1373.1,959.66l-.53,1.14c-.3.69-.69,1.61-1,2.55-.71,1.87-1.22,3.8-1.22,3.8a1.36,1.36,0,0,1-2.63-.7h0s.56-2.06,1.32-4c.38-1,.79-2,1.12-2.69l.55-1.19a1.34,1.34,0,0,1,2.44,1.12Z"/><path class="cls-25" d="M1369.15,991.19l.5,4.92a1.39,1.39,0,1,1-2.77.28h0l-.49-4.92a1.39,1.39,0,0,1,2.76-.28Z"/><path class="cls-25" d="M1371.24,1007.43l1.08,6.5a1.41,1.41,0,1,1-2.78.46h0l-1.07-6.5a1.4,1.4,0,0,1,2.77-.46Z"/><path class="cls-25" d="M1375.2,1030.13l1.38,8.12a1.43,1.43,0,1,1-2.82.48h0l-1.37-8.12a1.43,1.43,0,0,1,2.81-.48Z"/><path class="cls-25" d="M1379.5,1063l.18,4.94a1.46,1.46,0,1,1-2.91.1h0l-.17-4.94a1.45,1.45,0,0,1,2.9-.1Z"/><path class="cls-25" d="M1379.21,1079.61s-.18,1.67-.44,3.33-.6,3.32-.6,3.32a1.47,1.47,0,0,1-1.74,1.14,1.46,1.46,0,0,1-1.14-1.74h0s.33-1.57.58-3.16.42-3.2.42-3.2a1.47,1.47,0,1,1,2.92.31Z"/><path class="cls-25" d="M1372,1102l-.73,1.1c-.45.67-1.08,1.53-1.75,2.37a40.19,40.19,0,0,1-2.87,3.18h0a1.5,1.5,0,0,1-2.09-2.14h0a36.9,36.9,0,0,0,2.64-2.92c.62-.77,1.21-1.57,1.63-2.18l.69-1v0A1.49,1.49,0,0,1,1372,1102Z"/><path class="cls-25" d="M1346.64,1123.68l-4.25,2.51a1.52,1.52,0,0,1-1.55-2.61h0l4.25-2.51a1.52,1.52,0,1,1,1.55,2.61Z"/><path class="cls-25" d="M1332.09,1131.66l-5.95,2.83a1.53,1.53,0,1,1-1.32-2.77h0l6-2.82a1.53,1.53,0,0,1,1.31,2.76Z"/><path class="cls-25" d="M1310.84,1140.92l-7.71,2.89a1.55,1.55,0,0,1-1.09-2.91h0l7.72-2.87a1.54,1.54,0,0,1,2,.9A1.56,1.56,0,0,1,1310.84,1140.92Z"/><path class="cls-25" d="M1279.65,1151.71l-4.71,1.48a1.58,1.58,0,1,1-1-3h0l4.71-1.47a1.58,1.58,0,0,1,1,3Z"/><path class="cls-25" d="M1263.91,1156.59l-6.3,1.92a1.59,1.59,0,1,1-.93-3h0l6.3-1.91a1.59,1.59,0,1,1,.93,3Z"/><path class="cls-25" d="M1241.91,1163.37l-7.84,2.52a1.62,1.62,0,0,1-1-3.08h0l7.85-2.5a1.61,1.61,0,1,1,1,3.06Z"/><path class="cls-25" d="M1210.88,1174.07l-4.59,1.81a1.64,1.64,0,0,1-1.21-3.05h0l4.6-1.81a1.64,1.64,0,0,1,1.2,3Z"/><path class="cls-25" d="M1195.8,1180.38l-6,2.82a1.63,1.63,0,0,1-1.41-3l6-2.83a1.64,1.64,0,1,1,1.41,3Z"/><path class="cls-25" d="M1175.59,1191.05s-1.73,1.07-3.43,2.19-3.36,2.3-3.36,2.3a1.61,1.61,0,0,1-1.86-2.64s1.7-1.2,3.44-2.35,3.5-2.25,3.5-2.25h0a1.62,1.62,0,1,1,1.71,2.75Z"/><path class="cls-25" d="M1150.65,1211.58l-3.17,3.79a1.58,1.58,0,0,1-2.43-2l3.16-3.8a1.59,1.59,0,1,1,2.44,2Z"/><path class="cls-25" d="M1141.09,1224.64s-.83,1.39-1.6,2.81-1.49,2.87-1.49,2.87a1.57,1.57,0,0,1-2.81-1.39s.74-1.5,1.54-3,1.65-2.91,1.65-2.91h0a1.57,1.57,0,1,1,2.7,1.61Z"/><path class="cls-25" d="M1132.23,1245.39s-.14.49-.34,1.24c-.09.36-.21.79-.32,1.24s-.24,1-.37,1.47l-1,4a1.54,1.54,0,0,1-3-.73s.49-2,1-4c.13-.5.25-1,.36-1.47s.24-.92.34-1.31c.2-.74.34-1.24.34-1.24a1.55,1.55,0,0,1,3,.8Z"/><path class="cls-25" d="M1125.73,1277.44l-.66,4.9a1.51,1.51,0,0,1-3-.4l.65-4.9a1.52,1.52,0,1,1,3,.4Z"/><path class="cls-25" d="M1123.85,1293.71l-.51,6.57a1.5,1.5,0,0,1-1.61,1.37,1.48,1.48,0,0,1-1.37-1.6l.5-6.57a1.51,1.51,0,0,1,1.61-1.38,1.49,1.49,0,0,1,1.38,1.61Z"/><path class="cls-25" d="M1122.61,1316.62l-.08,8.24a1.47,1.47,0,0,1-2.94,0l.06-8.23a1.48,1.48,0,0,1,3,0Z"/><path class="cls-25" d="M1123.36,1349.42l.35,4.92a1.44,1.44,0,1,1-2.87.21l-.36-4.92a1.44,1.44,0,1,1,2.88-.22Z"/><path class="cls-25" d="M1124.76,1365.76l.74,6.54a1.42,1.42,0,0,1-2.83.33l-.75-6.54a1.43,1.43,0,1,1,2.84-.33Z"/><path class="cls-25" d="M1127.78,1388.53l1.38,8.12a1.4,1.4,0,0,1-2.76.47L1125,1389a1.4,1.4,0,1,1,2.77-.47Z"/><path class="cls-25" d="M1134.2,1420.71l1.18,4.8a1.37,1.37,0,1,1-2.66.66l-1.19-4.79a1.38,1.38,0,0,1,1-1.67,1.37,1.37,0,0,1,1.67,1Z"/><path class="cls-25" d="M1138.33,1436.59l1.84,6.33a1.32,1.32,0,0,1-2.53.74l-1.88-6.31a1.34,1.34,0,1,1,2.57-.77Z"/><path class="cls-25" d="M1145.24,1458.48l2.85,7.72a1.25,1.25,0,0,1-2.34.88l-2.89-7.71a1.27,1.27,0,0,1,2.38-.9Z"/><path class="cls-25" d="M1158.09,1488.57l2.38,4.33a1.16,1.16,0,0,1-2,1.13l-2.41-4.31a1.18,1.18,0,1,1,2-1.15Z"/><path class="cls-25" d="M1166.73,1502.34l.63.78c.39.47.91,1.08,1.44,1.67,1.08,1.19,2.26,2.23,2.26,2.23a1.12,1.12,0,0,1-1.47,1.68,32.73,32.73,0,0,1-2.44-2.39c-.58-.62-1.12-1.26-1.53-1.75s-.66-.81-.66-.81a1.13,1.13,0,0,1,1.76-1.43h0Z"/></g><g id="body-2" data-name="body"><path class="cls-26" d="M1756.71,1358.79c-4,38.4-36.7,58.31-40.77,73.29-.46,1.7-13.46,92.56-20.31,173.49-1.14,13.65-177.83,48-240.78,8.1-4-102.6-32.52-128.17-58.08-199.21-6.66-18.55-13.49-36-20.22-52.46-37.42-91.69-41.59-112.27-27.3-145.67,10.72-25,68.09-72.94,117.7-106,29.65-19.79,56.54-34.28,69-35.43h0c.53-.05,1-.07,1.5-.07a2.88,2.88,0,0,1,.41,0c24.62.18,60.7,18,95.48,26.79,20.54,12.08,54.52,35.08,77.75,61.95,12.53,14.5,4,74.79,6.23,95.42C1720.22,1285.42,1760.64,1321.87,1756.71,1358.79Z"/><path class="cls-27" d="M1756.71,1358.78c-4,38.42-36.71,58.32-40.78,73.31-89.17,15.31-202.94,21.74-194.58,8.48C1550.83,1393.84,1670.21,1403.21,1756.71,1358.78Z"/><path class="cls-5" d="M1467,1110.32c23.31,101.67,143.57,118.32,150.08,63.53,48.57,47.14,74.61-27.25,12.16-75.06C1564.06,1062.64,1496.57,1110.74,1467,1110.32Z"/><path class="cls-23" d="M1569.48,1210c-35.25,0-78.47-22.65-102.29-70.76a2.47,2.47,0,1,1,4.43-2.19c25.46,51.44,75.62,72.91,109.89,67,19.1-3.29,31.15-14.42,33.07-30.53a2.46,2.46,0,0,1,4-1.67c18.21,14,28.34,14.27,33.62,12.08,6.33-2.64,8.52-9.94,9.25-15.6,2.54-19.67-8.56-51.26-29.13-66.92a2.47,2.47,0,0,1,3-3.93c22.64,17.24,33.75,50.53,31,71.48-1.28,10-5.52,16.73-12.25,19.52-8.8,3.66-20.65.2-35.27-10.3-3.63,16-17,27.38-36.43,30.74A76,76,0,0,1,1569.48,1210Z"/></g><g id="head-2" data-name="head"><path class="cls-12" d="M1610.17,1161.08c-32.06,9.1-93.32-6.28-143.22-50.76,29.65-19.79,56.54-34.28,69-35.43h0l1.5-.05h.41c60.34-1.53,92.84,25.34,95.48,26.79C1647.6,1134.37,1635.88,1153.75,1610.17,1161.08Z"/><path class="cls-22" d="M1203.55,1147.19l-3.78,1c-2.45.67-6,1.64-10.57,3.06s-10,3.27-16.15,5.6-13,5.29-20.25,8.92a208.47,208.47,0,0,0-22.61,13.12,188,188,0,0,0-22.79,18.1,167.17,167.17,0,0,0-20.26,23.54,162.31,162.31,0,0,0-15.31,28.15c-1,2.5-1.84,5-2.77,7.57l-1.36,3.79-1.08,3.88q-1.06,3.88-2.13,7.74c-.56,2.61-1,5.23-1.54,7.83-1.19,5.18-1.57,10.45-2.22,15.61a74.79,74.79,0,0,0-.56,7.74c-.11,2.56-.23,5.11-.34,7.64l-.09,1.89,0,1.89.09,3.75c.05,2.48.11,5,.17,7.38s.31,4.84.49,7.22.42,4.72.63,7c.1,1.15.21,2.3.31,3.44s.32,2.27.47,3.38q.51,3.36,1,6.6c.33,2.17.65,4.29,1,6.38s.83,4.11,1.22,6.1q1.24,6,2.39,11.41c.33,1.83.85,3.56,1.29,5.26l1.32,4.94c.85,3.19,1.64,6.18,2.38,8.94s1.63,5.24,2.32,7.52l4.56,14.21v0a.82.82,0,0,1-.53,1,.84.84,0,0,1-1-.52s-1.74-5.16-4.8-14.19c-.73-2.27-1.7-4.74-2.45-7.51s-1.63-5.76-2.54-9l-1.4-5c-.47-1.7-1-3.43-1.39-5.26q-1.21-5.46-2.57-11.47c-.41-2-1-4-1.28-6.13s-.69-4.25-1-6.43-.71-4.39-1.07-6.65c-.17-1.12-.4-2.25-.51-3.41s-.23-2.31-.35-3.48q-.35-3.51-.69-7.11c-.21-2.4-.57-4.82-.57-7.29s-.16-5-.24-7.48l-.12-3.8-.06-1.91.07-1.92a190.22,190.22,0,0,1,3.05-31.5c.52-2.65,1-5.33,1.55-8,.72-2.62,1.43-5.26,2.15-7.9l1.09-4,1.38-3.87c.94-2.58,1.82-5.19,2.81-7.75a160.53,160.53,0,0,1,15.6-28.8,168.79,168.79,0,0,1,20.79-24,185.57,185.57,0,0,1,23.28-18.32,212.22,212.22,0,0,1,23.09-13c7.39-3.57,14.37-6.41,20.61-8.72s11.8-4,16.4-5.29,8.23-2.23,10.72-2.85l3.8-.91a.82.82,0,0,1,.4,1.6Z"/><path class="cls-22" d="M1610.52,1022.15c-49.85,6.48-68.71,31.82-84.1-21.18-17.43-60-116.77-117.55-88.6-213.05,18.88-64,74.38-83.87,126.24-83.87,54.52,0,108.94,37.86,124.6,85.42,8.84,26.92-4.15,64.15-10.88,93C1676.13,889.41,1667.87,1014.7,1610.52,1022.15Z"/><path class="cls-25" d="M1673.83,747.11l-4-4.18c-1.32-1.24-2.89-2.74-4.77-4.39L1662,736c-1.07-.91-2.33-1.69-3.57-2.6a69,69,0,0,0-8.57-5c-1.55-.84-3.25-1.45-4.94-2.19s-3.51-1.22-5.32-1.82c-1.87-.43-3.72-1.05-5.67-1.32l-2.92-.52-3-.31a65.08,65.08,0,0,0-12.17,0c-2,.11-4,.49-6.07.77s-4,.76-5.94,1.32-3.86,1.13-5.74,1.73-3.7,1.34-5.46,2.13a75.4,75.4,0,0,0-9.87,5.06,72.77,72.77,0,0,0-8.13,5.71,58.61,58.61,0,0,0-6.11,5.74,40.59,40.59,0,0,0-4,5,26.94,26.94,0,0,0-2,3.57l-.62,1.31,0,.08a.82.82,0,0,1-1.51-.65s.2-.51.59-1.44a27,27,0,0,1,2-3.91,43.25,43.25,0,0,1,4-5.45,57.48,57.48,0,0,1,6.14-6.21,75.87,75.87,0,0,1,8.29-6.12,77.47,77.47,0,0,1,10.12-5.48,72.94,72.94,0,0,1,11.6-4.13c2-.6,4.1-1,6.18-1.43s4.21-.71,6.35-.85a64,64,0,0,1,12.76,0l3.13.37,3.07.57c2,.31,4,1,6,1.45a65.82,65.82,0,0,1,10.71,4.35,52.67,52.67,0,0,1,4.64,2.67,48.78,48.78,0,0,1,4.13,2.8c1.26,1,2.54,1.83,3.62,2.81l3.09,2.73c1.86,1.81,3.43,3.47,4.7,4.81l3.69,4.41a.83.83,0,0,1-1.23,1.1Z"/><path class="cls-25" d="M1526.21,769.7l-1.42-.33-1.7-.39a16.4,16.4,0,0,0-2.27-.43l-2.79-.35c-1,0-2.13,0-3.31,0s-2.4.28-3.69.44l-1.91.54c-.33.1-.67.17-1,.3l-1,.44a15.79,15.79,0,0,0-1.94,1l-1.88,1.24a25.13,25.13,0,0,0-3.45,3.27,38.71,38.71,0,0,0-5.75,8.74,90.71,90.71,0,0,0-4.39,10.6c-1.31,3.71-2.57,7.52-3.77,11.37s-2.42,7.71-3.62,11.51-2.47,7.53-3.84,11.1c-.66,1.79-1.43,3.51-2.11,5.22s-1.48,3.34-2.25,4.92a84,84,0,0,1-4.84,8.67,59.53,59.53,0,0,1-5,6.75l-2.36,2.6-2.19,2-.93.87-.9.68-1.42,1.08-1.18.89a.81.81,0,0,1-1.15-.15.84.84,0,0,1,.12-1.13l.07-.05,1.08-.92,1.31-1.11.82-.7.87-.87,2-2c.67-.8,1.4-1.66,2.17-2.59a60.45,60.45,0,0,0,4.6-6.67,85.13,85.13,0,0,0,4.48-8.52c.71-1.56,1.38-3.19,2.07-4.85s1.34-3.39,2-5.17c2.56-7,4.85-14.77,7.2-22.51s4.88-15.53,8.43-22.44a40.17,40.17,0,0,1,6.34-9.35,28.1,28.1,0,0,1,4-3.53l2.19-1.34a18.86,18.86,0,0,1,2.25-1l1.11-.46c.37-.13.76-.2,1.13-.3l2.18-.54c1.45-.15,2.83-.31,4.11-.31s2.48.13,3.58.23l3,.55a14.23,14.23,0,0,1,2.32.58l1.67.51,1.39.42a.83.83,0,0,1-.42,1.6Z"/><path class="cls-25" d="M1561.36,774.2l-3.69,2.07c-1.1.74-2.45,1.55-3.92,2.64l-2.3,1.78c-.78.65-1.56,1.39-2.4,2.14s-1.58,1.64-2.42,2.5-1.53,1.91-2.34,2.89a45.34,45.34,0,0,0-4.16,6.85,69.83,69.83,0,0,0-5.37,16.76c-1.21,5.95-2,12-3,17.78-.56,2.87-1.2,5.64-2,8.24a40.25,40.25,0,0,1-3,7.13,22.71,22.71,0,0,1-4,5.23c-.36.34-.68.69-1,1l-1.06.81c-.34.25-.66.51-1,.72l-1,.56a17.84,17.84,0,0,1-2.93,1.41l-1.06.43a.82.82,0,0,1-.68-1.49l.09,0,1-.47a17,17,0,0,0,2.6-1.47l.85-.55c.29-.21.56-.46.86-.71l.92-.77c.31-.27.58-.61.88-.93a21.35,21.35,0,0,0,3.4-4.89,37.13,37.13,0,0,0,2.52-6.7c.65-2.49,1.19-5.18,1.64-8,.93-5.63,1.65-11.76,2.82-17.89a79.73,79.73,0,0,1,2.25-9.08,55.11,55.11,0,0,1,3.46-8.46,45.56,45.56,0,0,1,4.59-7.26c.91-1,1.73-2.08,2.65-3s1.77-1.81,2.69-2.56,1.78-1.5,2.64-2.15l2.53-1.73c1.63-1,3.14-1.82,4.34-2.49l3.85-1.75a.82.82,0,0,1,1.09.41A.83.83,0,0,1,1561.36,774.2Z"/><path class="cls-25" d="M1519.22,750.38H1517c-1.47,0-3.66-.06-6.37.08s-6,.28-9.77.82c-.94.13-1.92.21-2.91.38l-3.05.55c-1,.19-2.12.36-3.21.59l-3.31.84a84.54,84.54,0,0,0-14.11,4.94,82.07,82.07,0,0,0-14.29,8.48,72.1,72.1,0,0,0-12.61,12.46c-.89,1.22-1.88,2.38-2.72,3.65L1442.1,787l-2.23,4c-.76,1.34-1.32,2.78-2,4.16a83.68,83.68,0,0,0-5.53,17.52,104.68,104.68,0,0,0-1.76,17.78,111.23,111.23,0,0,0,1.11,16.73,123.72,123.72,0,0,0,3,14.78c1.2,4.51,2.43,8.63,3.74,12.2s2.56,6.65,3.55,9.2,2,4.44,2.63,5.78l.94,2v0a.82.82,0,0,1-1.48.71l-1-2c-.64-1.34-1.66-3.26-2.81-5.78s-2.56-5.58-3.86-9.21-2.81-7.73-4.12-12.3a126.5,126.5,0,0,1-3.25-15,115.44,115.44,0,0,1-1.41-17.14,104.64,104.64,0,0,1,1.7-18.36,87,87,0,0,1,5.65-18.23c.69-1.45,1.27-2.95,2-4.35l2.31-4.22,2.61-4c.86-1.34,1.91-2.54,2.86-3.81A76.11,76.11,0,0,1,1458,764.56a82.88,82.88,0,0,1,15-8.71,88.59,88.59,0,0,1,14.69-4.8l3.43-.78c1.12-.22,2.23-.37,3.3-.55l3.14-.49c1-.14,2-.19,3-.28,3.85-.42,7.25-.43,10-.49s4.92.15,6.4.18l2.26.1a.82.82,0,0,1,0,1.64Z"/><path class="cls-12" d="M1609.62,1102.81c3-3.12-2.24-15.54-5.67-31.43a104.35,104.35,0,0,1-2.59-21.73c.05-42.41,5.4-66.64,5.4-66.64l-85.41-95.88-27.1.66c23.62,80.81,21.15,175.64-.36,205.6C1492.06,1096,1581,1132.31,1609.62,1102.81Z"/><path class="cls-13" d="M1604,1071.38a104.35,104.35,0,0,1-2.59-21.73c.05-42.41,5.4-66.64,5.4-66.64l-85.12-49.52C1517.34,993.11,1561,1062.25,1604,1071.38Z"/><path class="cls-12" d="M1502.49,905.49c18.83,78.8,74.92,134.12,133.88,117.58,19.89-5.61,45-36.74,51-84.63a181.47,181.47,0,0,0,.27-41.27c-.29-2.9-.66-5.83-1.09-8.8-3.67-25-1.21-51.23-6.26-67.16C1658.8,779,1608.86,835.6,1574,783.38c-19.29,8.07-19.29,56.86-32.66,77.74-11.63,18.23-29.59,12.62-35.83,8.15A134.09,134.09,0,0,0,1502.49,905.49Z"/><ellipse class="cls-13" cx="1589.5" cy="918.89" rx="28.39" ry="22.08"/><path class="cls-13" d="M1669.22,917.84c0,9.4,7.52,17.4,18.13,20.6a181.47,181.47,0,0,0,.27-41.27C1676.86,900.31,1669.22,908.39,1669.22,917.84Z"/><path class="cls-28" d="M1574,783.37c34.86,52.24,84.79-4.44,106.22,37.86-22.91-24.69-73.94,26.92-106.43-37.74C1573.88,783.46,1573.94,783.4,1574,783.37Z"/><path class="cls-13" d="M1541.35,861.12c8.21-12.84,11.38-36.17,17.08-54.15-3.35,26.85-2.63,55.83-19.54,67.76-16.31,11.51-25.66.61-32.05-4.6C1514,874.35,1530.46,878.17,1541.35,861.12Z"/><path class="cls-12" d="M1475.87,864.65c-14.75,16.52,22.94,80.84,33.83,39.65,4.61-17.42,2.82-27.38-5.28-35.89C1493.83,857.27,1480.9,859,1475.87,864.65Z"/><path class="cls-14" d="M1501,898.46h-.17c-1.92-.19-6-2.46-6.7-5.17a5.75,5.75,0,0,1,.91-4.81,3.64,3.64,0,0,0,.75-2.27c-.3-4.29-1.94-7.53-4.75-9.36a9.59,9.59,0,0,0-8.2-1.08,1.64,1.64,0,1,1-1.12-3.09,13,13,0,0,1,11.11,1.41c2.59,1.69,5.78,5.12,6.25,11.9a6.85,6.85,0,0,1-1.2,4.17c-.58,1-.81,1.41-.57,2.28.27,1,2.87,2.65,3.85,2.75a1.64,1.64,0,0,1-.16,3.28Z"/><path class="cls-14" d="M1486.44,885.19a1.67,1.67,0,0,1-.53-.08,1.64,1.64,0,0,1-1-2.09,7.63,7.63,0,0,1,6.81-5.16,6.42,6.42,0,0,1,6.39,3.49,1.65,1.65,0,0,1-3,1.43,3.22,3.22,0,0,0-3.22-1.64,4.33,4.33,0,0,0-3.9,2.94A1.64,1.64,0,0,1,1486.44,885.19Z"/><path class="cls-25" d="M1695.3,850.35l.49-.21a9.06,9.06,0,0,0,1.36-.64,15.57,15.57,0,0,0,4.28-3.54,20.09,20.09,0,0,0,4-7.77,22.45,22.45,0,0,0,.07-11.25,21.09,21.09,0,0,0-7.1-11,27.21,27.21,0,0,0-6.31-3.83,49.83,49.83,0,0,0-7.31-2.8,58.26,58.26,0,0,0-16.31-2.22,107.57,107.57,0,0,0-17.14,1.54c-11.47,1.85-22.8,5.07-33.88,6.54a56.52,56.52,0,0,1-16.22,0,29.18,29.18,0,0,1-13.5-5.83,33.34,33.34,0,0,1-8-9.43,54.54,54.54,0,0,1-4-8.53c-.92-2.43-1.51-4.39-1.9-5.72s-.58-2-.58-2a.82.82,0,0,1,1.58-.47v0l.63,2c.41,1.29,1.06,3.19,2,5.53a52.48,52.48,0,0,0,4.12,8.08,32.07,32.07,0,0,0,7.67,8.58,26.53,26.53,0,0,0,12.4,5.09,53.58,53.58,0,0,0,15.38-.31c10.75-1.48,22.07-4.76,33.75-6.72a98.39,98.39,0,0,1,17.7-1.58,61,61,0,0,1,17.16,2.48,54,54,0,0,1,7.78,3.05,30.74,30.74,0,0,1,6.82,4.35,23.75,23.75,0,0,1,7.36,25.11,22.11,22.11,0,0,1-4.66,8.45,16.61,16.61,0,0,1-5,3.8,10.73,10.73,0,0,1-1.51.64l-.51.18a.81.81,0,0,1-1.05-.49A.82.82,0,0,1,1695.3,850.35Z"/></g><g id="arm-2" data-name="arm"><path class="cls-21" d="M1635.61,1528.2c46.49,9.11,301.09,43.44,384.17,37,9.35-.73-17,42.94-27.55,44.74-66.92,11.47-292.29,47.22-363.54,23-14.27-4.85-79.8-51-79.33-77.73C1549.79,1530.18,1615,1524.17,1635.61,1528.2Z"/><path class="cls-5" d="M1590.16,1614.38c-5.22-2.68-12.07-7.43-20.2-14-4.62-3.7-19.55,1-24.93-3.74-4-3.6,1.62-16.51-2.79-20.66-5.51-5.2-12.72-1-18.71-7-4.69-4.68-1.34-11.62-6.27-16.74-71-73.85-116.52-124.65-160.21-211.54-28.93-57.54-19.15-114.39,27.67-124.44,34.37-7.38,65.71,35.26,119.32,108.34,73.27,99.87,121.86,175.59,155.52,204.87C1674,1542.92,1611.12,1622.17,1590.16,1614.38Z"/></g></g></g></svg>