<svg xmlns="http://www.w3.org/2000/svg" xmlns:xlink="http://www.w3.org/1999/xlink" viewBox="0 0 4632 3439"><defs><style>.cls-1{fill:#c1cff9;}.cls-2{fill:#fff;}.cls-3{fill:url(#linear-gradient);}.cls-4{fill:url(#linear-gradient-2);}.cls-5{fill:url(#linear-gradient-3);}.cls-6{fill:url(#linear-gradient-4);}.cls-7{fill:url(#linear-gradient-5);}.cls-8{fill:url(#linear-gradient-6);}.cls-9{fill:url(#linear-gradient-7);}.cls-10{fill:url(#linear-gradient-8);}.cls-11{fill:url(#linear-gradient-9);}.cls-12{fill:url(#linear-gradient-10);}.cls-13{fill:url(#linear-gradient-11);}.cls-14{fill:url(#linear-gradient-12);}.cls-15{fill:url(#linear-gradient-13);}.cls-16{fill:url(#linear-gradient-14);}.cls-17{fill:url(#linear-gradient-15);}.cls-18{fill:url(#linear-gradient-16);}.cls-19{fill:url(#linear-gradient-17);}.cls-20{fill:url(#linear-gradient-18);}.cls-21{fill:url(#linear-gradient-19);}.cls-22{fill:url(#linear-gradient-20);}.cls-23{fill:url(#linear-gradient-21);}.cls-24{fill:url(#linear-gradient-22);}.cls-25{fill:url(#linear-gradient-23);}.cls-26{fill:url(#linear-gradient-24);}.cls-27{fill:url(#linear-gradient-25);}.cls-28{fill:url(#linear-gradient-26);}.cls-29{fill:url(#linear-gradient-27);}.cls-30{fill:url(#linear-gradient-28);}.cls-31{fill:url(#linear-gradient-29);}.cls-32{fill:url(#linear-gradient-30);}.cls-33{fill:url(#linear-gradient-31);}.cls-34{fill:url(#linear-gradient-32);}.cls-35{fill:url(#linear-gradient-33);}.cls-36{fill:url(#linear-gradient-34);}.cls-37{fill:url(#linear-gradient-35);}.cls-38{fill:url(#linear-gradient-36);}.cls-39{fill:url(#linear-gradient-37);}.cls-40{fill:url(#linear-gradient-38);}.cls-41{fill:url(#linear-gradient-39);}.cls-42{fill:url(#linear-gradient-40);}.cls-43{fill:url(#linear-gradient-41);}.cls-44{fill:url(#linear-gradient-42);}.cls-45{fill:url(#linear-gradient-43);}.cls-46{fill:url(#linear-gradient-44);}.cls-47{fill:url(#linear-gradient-45);}.cls-48{fill:url(#linear-gradient-46);}.cls-49{fill:url(#linear-gradient-47);}</style><linearGradient id="linear-gradient" x1="815.94" y1="1099.3" x2="1083.11" y2="3115.25" gradientUnits="userSpaceOnUse"><stop offset="0" stop-color="#d5dffa"/><stop offset="1" stop-color="#fff"/></linearGradient><linearGradient id="linear-gradient-2" x1="3121.21" y1="793.78" x2="3388.39" y2="2809.72" xlink:href="#linear-gradient"/><linearGradient id="linear-gradient-3" x1="3428.4" y1="753.07" x2="3695.57" y2="2769.01" xlink:href="#linear-gradient"/><linearGradient id="linear-gradient-4" x1="3385.21" y1="758.79" x2="3652.38" y2="2774.74" xlink:href="#linear-gradient"/><linearGradient id="linear-gradient-5" x1="2016.44" y1="940.2" x2="2283.61" y2="2956.14" xlink:href="#linear-gradient"/><linearGradient id="linear-gradient-6" x1="2903.47" y1="861.4" x2="4138.79" y2="2125.44" gradientTransform="matrix(-0.98, 0.18, 0.18, 0.98, 5019.85, -389.54)" gradientUnits="userSpaceOnUse"><stop offset="0" stop-color="#fdcdcd"/><stop offset="1" stop-color="#ff8686"/></linearGradient><linearGradient id="linear-gradient-7" x1="3414.4" y1="1354.13" x2="3396.78" y2="848.54" gradientTransform="matrix(-0.98, 0.18, 0.18, 0.98, 5019.85, -389.54)" gradientUnits="userSpaceOnUse"><stop offset="0" stop-color="#fff"/><stop offset="1" stop-color="#d5dffa"/></linearGradient><linearGradient id="linear-gradient-8" x1="4255.18" y1="1631.56" x2="3692.01" y2="1068.39" gradientTransform="matrix(-1, 0, 0, 1, 5476.02, 0)" gradientUnits="userSpaceOnUse"><stop offset="0" stop-color="#a1c5ff"/><stop offset="1" stop-color="#2d4bdf"/></linearGradient><linearGradient id="linear-gradient-9" x1="3592.87" y1="1867.55" x2="4614.24" y2="2888.92" gradientTransform="matrix(-1, 0, 0, 1, 5476.02, 0)" gradientUnits="userSpaceOnUse"><stop offset="0" stop-color="#070256"/><stop offset="1" stop-color="#4222d0"/></linearGradient><linearGradient id="linear-gradient-10" x1="3466.65" y1="1993.76" x2="4488.02" y2="3015.13" xlink:href="#linear-gradient-9"/><linearGradient id="linear-gradient-11" x1="4115.97" y1="3334.95" x2="4115.97" y2="3574.64" gradientTransform="matrix(-1, 0, 0, 1, 5476.02, 0)" gradientUnits="userSpaceOnUse"><stop offset="0" stop-color="#070256"/><stop offset="1" stop-color="#3a18ce"/></linearGradient><linearGradient id="linear-gradient-12" x1="3717.7" y1="3334.95" x2="3717.7" y2="3574.64" xlink:href="#linear-gradient-11"/><linearGradient id="linear-gradient-13" x1="4382.51" y1="2064" x2="3670.96" y2="1352.44" gradientTransform="matrix(-1, 0, 0, 1, 5476.02, 0)" xlink:href="#linear-gradient-7"/><linearGradient id="linear-gradient-14" x1="4355.57" y1="2208.98" x2="3288.82" y2="1142.23" gradientTransform="matrix(-1, 0, 0, 1, 5476.02, 0)" xlink:href="#linear-gradient-7"/><linearGradient id="linear-gradient-15" x1="4113.92" y1="937.28" x2="3580.73" y2="1470.47" gradientTransform="matrix(-1, 0, 0, 1, 5476.02, 0)" xlink:href="#linear-gradient-7"/><linearGradient id="linear-gradient-16" x1="3755.06" y1="879.89" x2="3925.94" y2="1503.52" gradientTransform="matrix(-1, 0, 0, 1, 5476.02, 0)" xlink:href="#linear-gradient-7"/><linearGradient id="linear-gradient-17" x1="3840.99" y1="992.12" x2="4381.38" y2="1689.75" xlink:href="#linear-gradient-11"/><linearGradient id="linear-gradient-18" x1="3810.45" y1="1015.77" x2="4350.85" y2="1713.4" xlink:href="#linear-gradient-11"/><linearGradient id="linear-gradient-19" x1="3750.94" y1="1564.12" x2="4120.89" y2="1032.97" xlink:href="#linear-gradient-8"/><linearGradient id="linear-gradient-20" x1="3690.56" y1="1522.06" x2="4060.51" y2="990.92" xlink:href="#linear-gradient-8"/><linearGradient id="linear-gradient-21" x1="3645.61" y1="1362.79" x2="3920.43" y2="943.95" gradientTransform="matrix(-0.71, -0.71, -0.71, 0.71, 5182.04, 3013.1)" xlink:href="#linear-gradient-8"/><linearGradient id="linear-gradient-22" x1="3728.21" y1="1079.48" x2="4268.6" y2="1777.11" xlink:href="#linear-gradient-11"/><linearGradient id="linear-gradient-23" x1="-1727.05" y1="346.04" x2="-1669.6" y2="194.79" gradientTransform="translate(3122.72 -6.94) rotate(-18.82)" xlink:href="#linear-gradient-9"/><linearGradient id="linear-gradient-24" x1="4277.98" y1="1309.55" x2="3609.61" y2="641.18" gradientTransform="matrix(-1, 0, 0, 1, 5476.02, 0)" xlink:href="#linear-gradient-6"/><linearGradient id="linear-gradient-25" x1="3720.44" y1="641.2" x2="4629.46" y2="1571.37" gradientTransform="matrix(-1, 0, 0, 1, 5476.02, 0)" xlink:href="#linear-gradient-6"/><linearGradient id="linear-gradient-26" x1="3824.64" y1="1148.78" x2="3954.12" y2="807.9" xlink:href="#linear-gradient-8"/><linearGradient id="linear-gradient-27" x1="3893.53" y1="1175.01" x2="4023.01" y2="834.13" xlink:href="#linear-gradient-8"/><linearGradient id="linear-gradient-28" x1="-2104.63" y1="2279.65" x2="-1909.61" y2="1766.22" gradientTransform="matrix(0.87, -0.3, 0.25, 0.75, 2766.08, -1284.15)" xlink:href="#linear-gradient-9"/><linearGradient id="linear-gradient-29" x1="3717.94" y1="638.47" x2="4626.97" y2="1568.64" gradientTransform="matrix(-1, 0, 0, 1, 5476.02, 0)" xlink:href="#linear-gradient-6"/><linearGradient id="linear-gradient-30" x1="2557.49" y1="861.77" x2="2630.69" y2="861.77" gradientTransform="matrix(0.92, -0.4, 0.4, 0.92, -700.32, 1436.26)" gradientUnits="userSpaceOnUse"><stop offset="0" stop-color="#fff"/><stop offset="1" stop-color="#aac0fa"/></linearGradient><linearGradient id="linear-gradient-31" x1="1760.36" y1="1241.37" x2="1873.45" y2="1241.37" gradientTransform="matrix(1, 0, 0, 1, 0, 0)" xlink:href="#linear-gradient-9"/><linearGradient id="linear-gradient-32" x1="3118.54" y1="805.64" x2="4353.91" y2="2069.74" gradientTransform="matrix(-0.97, 0.22, 0.22, 0.97, 4890.22, -526.94)" xlink:href="#linear-gradient-6"/><linearGradient id="linear-gradient-33" x1="3629.48" y1="1298.38" x2="3611.86" y2="792.77" gradientTransform="matrix(-0.97, 0.22, 0.22, 0.97, 4890.22, -526.94)" xlink:href="#linear-gradient-7"/><linearGradient id="linear-gradient-34" x1="1737.63" y1="1241.34" x2="2775.5" y2="860.22" gradientTransform="matrix(0.92, -0.4, 0.4, 0.92, -700.32, 1436.26)" xlink:href="#linear-gradient-8"/><linearGradient id="linear-gradient-35" x1="-2760.01" y1="607.6" x2="-3553.77" y2="2014.39" gradientTransform="matrix(-0.98, 0.18, 0.18, 0.98, -889.63, 798.63)" xlink:href="#linear-gradient-6"/><linearGradient id="linear-gradient-36" x1="-2827.45" y1="454.18" x2="-3555.64" y2="1336.52" gradientTransform="matrix(-0.98, 0.18, 0.18, 0.98, -889.63, 798.63)" gradientUnits="userSpaceOnUse"><stop offset="0" stop-color="#eb3b61"/><stop offset="1" stop-color="#7d0754"/></linearGradient><linearGradient id="linear-gradient-37" x1="-3690.45" y1="1467.75" x2="-4328.31" y2="2987.97" gradientTransform="matrix(-1, 0, 0, 1, -1152.37, 0)" xlink:href="#linear-gradient-9"/><linearGradient id="linear-gradient-38" x1="-3473.56" y1="1558.75" x2="-4111.41" y2="3078.97" gradientTransform="matrix(-1, 0, 0, 1, -1152.37, 0)" xlink:href="#linear-gradient-9"/><linearGradient id="linear-gradient-39" x1="-4077.86" y1="3259.3" x2="-4067.23" y2="2972.27" gradientTransform="matrix(-1, 0, 0, 1, -1152.37, 0)" xlink:href="#linear-gradient-11"/><linearGradient id="linear-gradient-40" x1="-3677.84" y1="3274.12" x2="-3667.21" y2="2987.08" gradientTransform="matrix(-1, 0, 0, 1, -1152.37, 0)" xlink:href="#linear-gradient-11"/><linearGradient id="linear-gradient-41" x1="-4207.41" y1="343.28" x2="-3743.19" y2="1874.13" gradientTransform="matrix(-1, 0, 0, 1, -1152.37, 0)" gradientUnits="userSpaceOnUse"><stop offset="0" stop-color="#eb3b61"/><stop offset="0.3" stop-color="#ca2b5d"/><stop offset="0.62" stop-color="#b7225b"/><stop offset="1" stop-color="#7d0754"/></linearGradient><linearGradient id="linear-gradient-42" x1="-4265.66" y1="1859.88" x2="-3624.26" y2="502.66" gradientTransform="matrix(-1, 0, 0, 1, -1152.37, 0)" xlink:href="#linear-gradient-6"/><linearGradient id="linear-gradient-43" x1="-3631.64" y1="481.97" x2="-4425.41" y2="1888.8" gradientTransform="matrix(-1, 0, 0, 1, -1152.37, 0)" xlink:href="#linear-gradient-6"/><linearGradient id="linear-gradient-44" x1="-3099.87" y1="848.04" x2="-3893.7" y2="2254.96" gradientTransform="matrix(-1, 0.06, 0.06, 1, -827.36, -72.24)" xlink:href="#linear-gradient-6"/><linearGradient id="linear-gradient-45" x1="-3625.87" y1="612.83" x2="-3911.13" y2="1810.59" gradientTransform="matrix(-1, 0.03, 0.03, 1, -966.96, -39.29)" xlink:href="#linear-gradient-41"/><linearGradient id="linear-gradient-46" x1="-6296.62" y1="-1641.59" x2="-6208.78" y2="-4013.26" gradientTransform="matrix(-0.81, -0.85, -0.73, 0.69, -6063.18, -894.22)" xlink:href="#linear-gradient-11"/><linearGradient id="linear-gradient-47" x1="-3648.11" y1="472.68" x2="-4441.88" y2="1879.5" gradientTransform="matrix(-1, 0, 0, 1, -1152.37, 0)" xlink:href="#linear-gradient-6"/></defs><g id="Layer_1" data-name="Layer 1"><path class="cls-1" d="M1084.53,889.77C1161.74,780.17,1248.08,678,1341.33,587c424-413.79,968.56-349.7,1432.94-37.32a2123.34,2123.34,0,0,1,196.4,150.55A2368.4,2368.4,0,0,1,3147.6,869.5q78,84.79,147.45,176.64c241.46,319,455.57,736.71,444.89,1147.81-8.71,335.16-231.52,599.54-578.75,589.44-167.1-4.85-327.48-65.87-478.21-138.16-287.35-137.81-525.07-278.84-856.18-240.36-196.42,22.83-375,116.38-571.68,132.1-130,10.39-268.67-17.92-366.15-104.66-242.21-215.56-195.52-668.38-107.27-941.17C849.51,1281.55,954,1075.05,1084.53,889.77Z"/><path class="cls-2" d="M2302.3,459h-28.57V430.4a5.37,5.37,0,1,0-10.73,0V459h-28.57a5.37,5.37,0,1,0,0,10.73H2263v28.57a5.37,5.37,0,0,0,10.73,0V469.7h28.57a5.37,5.37,0,0,0,0-10.73Z"/><path class="cls-2" d="M2108.74,965h-28.57V936.45a5.37,5.37,0,0,0-10.73,0V965h-28.57a5.37,5.37,0,0,0,0,10.73h28.57v28.57a5.37,5.37,0,1,0,10.73,0V975.75h28.58a5.37,5.37,0,1,0,0-10.73Z"/><path class="cls-2" d="M2349.35,786.09h-28.57V757.52a5.37,5.37,0,1,0-10.73,0v28.57h-28.57a5.37,5.37,0,1,0,0,10.73h28.57v28.57a5.37,5.37,0,0,0,10.73,0V796.82h28.57a5.37,5.37,0,0,0,0-10.73Z"/><path class="cls-2" d="M1986.4,650h-28.58V621.41a5.36,5.36,0,1,0-10.72,0V650h-28.58a5.36,5.36,0,1,0,0,10.72h28.58v28.57a5.36,5.36,0,1,0,10.72,0V660.71h28.58a5.36,5.36,0,0,0,0-10.72Z"/><path class="cls-2" d="M2108.74,160.19h-28.57V131.62a5.37,5.37,0,1,0-10.73,0v28.57h-28.57a5.37,5.37,0,0,0,0,10.73h28.57v28.57a5.37,5.37,0,0,0,10.73,0V170.92h28.58a5.37,5.37,0,1,0,0-10.73Z"/><path class="cls-3" d="M660.81,1625.24l-.45-.26c-.65-.42-1.37-1.08-.83-2.19l.65-1.37,1.41.58-.61,1.47.82-1.36.56.31c12.95,7.16,60.07,33.95,122.56,78.31,88,62.44,165.76,130.36,231.2,201.88,72.47,73.91,180.32,217.85,258.57,362.77-1.69-11.32-11.8-76.63,3.07-123.55,15.67-51-4.92-148.54-98.19-312.51-46.75-81.76-123.27-155.5-203.49-204.43-79.8-49.36-163.3-73.9-214.28-67.25-102,12.22-217.89,13.46-218.14,13.74.29-.1,45.64,98.3,61.36,180.23,7.56,41.19,69,120.51,145.48,197.36,77.51,76.67,170.14,150.86,263,177.33,158.08,45.6,234.59,114.91,255.42,135.1-77.85-142.79-183.67-283.73-255.1-356.57C861.68,1738.59,680.92,1636.35,660.81,1625.24Z"/><path class="cls-2" d="M1274.69,2265.38a15,15,0,0,1,.23,1.71c-.07.28-2-1.8-6-5.69q12.52,23,24,45.94c43.24,81.84,72.48,157.73,90.49,209.74l3.16-.72c-18-52.12-47.37-128.32-90.78-210.49Q1285.67,2285.67,1274.69,2265.38Z"/><path class="cls-2" d="M1274.92,2267.09a15,15,0,0,0-.23-1.71c-78.25-144.92-186.1-288.86-258.57-362.77-65.44-71.52-143.23-139.44-231.2-201.88-62.49-44.36-109.61-71.15-122.56-78.31l-.56-.31-.82,1.36.61-1.47-1.41-.58-.65,1.37c-.54,1.11.18,1.77.83,2.19l.62-1.49-.62,1.49.45.26c20.11,11.11,200.87,113.35,353,279.59,71.43,72.84,177.25,213.78,255.1,356.57C1272.89,2265.29,1274.85,2267.37,1274.92,2267.09Z"/><path class="cls-4" d="M3400.78,1844c29.08-27.23,54.2-50.74,71.87-71.87l2.47,2.06c-17.8,21.28-43,44.86-72.15,72.16-50.76,47.53-113.94,106.67-168.86,183.07-82.74,115.1-136,379.95-142.87,527.35,8.49-41.93,43.11-198.15,95.74-241.69,61-50.45,207.3-252.6,276.48-358.49s39.3-271.43,39.3-271.43-21.46,51.23-67.32,73.52S3237.34,1876,3162,2055.28c-60.55,144-70.76,386.84-72.44,476.9,11.19-151.1,63.29-395.19,142-504.68C3286.6,1950.85,3349.91,1891.58,3400.78,1844Z"/><path class="cls-2" d="M3091.24,2556.73c-1.35,6.65-2,10.44-2,10.44s-.1-12.91.31-35c-.91,12.3-1.56,24-1.92,34.93-2.44,74-3.54,152.65-4,210.45l3.21.4c.49-57.81,1.59-136.57,4-210.74C3090.92,2563.8,3091.07,2560.29,3091.24,2556.73Z"/><path class="cls-2" d="M3089.2,2567.17s.69-3.79,2-10.44c6.91-147.4,60.13-412.25,142.87-527.35,54.92-76.4,118.1-135.54,168.86-183.07,29.17-27.3,54.35-50.88,72.15-72.16l-2.47-2.06c-17.67,21.13-42.79,44.64-71.87,71.87-50.87,47.62-114.18,106.89-169.29,183.54-78.69,109.49-130.79,353.58-142,504.68C3089.1,2554.26,3089.2,2567.17,3089.2,2567.17Z"/><path class="cls-5" d="M4118.14,1934.17s-47.34-20.62-138.54,26.51-275.81,35.34-348.45,61.85-125.62,85.42-224.31,123.71-293,383.35-253.26,549.54c8.46,35.42,17.68,64.18,27,87.55q18.27-.15,36.67-1.28c5.36,0,10.72,0,16.09-1.07a485,485,0,0,0,55.95-7.21c12.91-34,27.86-69.87,45.54-107.11,44.5-93.7,98.31-179.34,164.5-261.8,75.64-94.23,187.74-188.22,268.46-250.48,87.44-67.43,157.93-113.2,158.63-113.65l.87,1.35c30.08-24.49,57-42.61,79-51.95C4103.41,1948.89,4118.14,1934.17,4118.14,1934.17Z"/><path class="cls-6" d="M3501.79,2406.87c-103.8,129.32-165.13,251.32-208.81,366.2,10-1.88,20.07-4,30.2-6.22,64.68-99,161.75-241.91,248.34-346.69,108.79-131.64,242.77-282.89,344.22-368.53-24,16-80.19,54.52-146,105.32C3689.11,2219.09,3577.22,2312.9,3501.79,2406.87Z"/><path class="cls-2" d="M3928.12,2043.43l-.88-1.35q-5.67,4.62-11.5,9.55C3923.55,2046.39,3928,2043.54,3928.12,2043.43Z"/><path class="cls-2" d="M3767.74,2154.38c-80.72,62.26-192.82,156.25-268.46,250.48-66.19,82.46-120,168.1-164.5,261.8-17.68,37.24-32.63,73.1-45.54,107.11l3.74-.7c43.68-114.88,105-236.88,208.81-366.2,75.43-94,187.32-187.78,267.9-249.92,65.86-50.8,122.08-89.28,146-105.32q5.82-4.92,11.5-9.55l-.87-1.35C3925.67,2041.18,3855.18,2087,3767.74,2154.38Z"/><path class="cls-7" d="M2048.26,2168.56c13.36-54.76,66.14-129.75,108.07-183,45.36-57.62,88.13-102.94,88.56-103.39l2.33,2.21c-1.7,1.8-170.5,181.1-195.83,285-26,106.63-14.93,151.23-4.59,189.89,9.57-20.39,82.42-174.43,147.63-279.43,70-112.62,146.67-309.13,146.67-309.13s-46.57,52.22-94.91,76.47-183.42,74.38-252.89,256.09c-64.11,167.68,34.76,245.82,50.41,256.88C2033.75,2322.88,2022.06,2276,2048.26,2168.56Z"/><path class="cls-2" d="M2046.8,2359.22l-1.06,2.26s-.73-.46-2-1.38l.48,1.8c3.18,11.89,10.83,28.21,20.18,45.54,1.33.16,2.67.33,4,.51-9.8-17.94-17.85-34.87-21.07-46.89C2047.13,2360.45,2047,2359.83,2046.8,2359.22Z"/><path class="cls-2" d="M2046.8,2359.22c-10.34-38.66-21.43-83.26,4.59-189.89,25.33-103.86,194.13-283.16,195.83-285l-2.33-2.21c-.43.45-43.2,45.77-88.56,103.39-41.93,53.26-94.71,128.25-108.07,183-26.2,107.4-14.51,154.32-4.55,191.54,1.3.92,2,1.38,2,1.38Z"/><path class="cls-8" d="M2097,1267.88c1.06-.64,2.21-1.4,3.42-2.23,9.85-6.73,24.25-18.08,34.79-6.78,8.47,9.08,2,22.89-3.36,30.34-8,11-18.07,20.73-28.14,30l-29.54-37.78Q2085.57,1274.7,2097,1267.88Z"/><path class="cls-9" d="M1660.05,1076.17c63.44.81,78,111.78,90.39,156.1,17.83,63.84,39.57,123.52,75.86,178.42,87.44-34.85,167.72-85.86,248.41-133.38l41.69,53c-3.23,3-6.45,5.91-9.6,8.84-39.91,37.09-91.09,69.73-135.71,100.76-27.64,19.23-55.79,37-85.67,52.62-25.88,13.55-65.6,29.49-95.69,24.68-12.2-2-23-8.91-32.45-16.88-32.1-27.16-61.74-56.88-85.18-92-32.59-48.81-54.31-104.8-64.77-162.48C1600.64,1209,1593.89,1075.32,1660.05,1076.17Z"/><path class="cls-10" d="M1476.36,1012.16c5.61,6,18,19.38,65.84,23.37,31.71,2.64,66.71,1.84,74.12-5.3,234.79,97.44,104.7,522.26,104.7,522.26L1386.66,1568S1179.94,1045.55,1476.36,1012.16Z"/><path class="cls-11" d="M1385.48,1562.85c-.74,34.68-1.93,95.05-2,130.6q-2.31,88.2-4.34,175.68c-4.17,188.93,4,293.8,2.76,484.83-.09,15.79-1.67,33.1-9.7,47q-17,42.6-30.31,85.79t-23.41,86.84c-49.57,208.4-49.13,418.21-50.41,628l80.53,2.95c9.48-47.59,26.83-130.43,47.06-206.8,11.12-42,22.44-81.48,32.32-110,29.35-85,117.29-468.17,143.42-583.27,14.11-68,26.36-137.61,35.1-203.46s14-127.94,14.09-180.83c.31-162.16,1.35-299.81-.06-357.35Z"/><path class="cls-12" d="M1782.15,1908.93C1762,1764.72,1736,1632,1721.7,1562.85H1496.29c2.6,21.14,12,97.69,18.18,142q10.14,87.81,20.44,174.88c22.48,188,45.36,291.47,71.06,481.32.59,4.39,1.08,8.91,1.36,13.46l-1.11-.16a67.87,67.87,0,0,1-3.12,22q-8.14,45.39-12.49,90.79t-5.47,90.77c-6.61,216.85,36.43,427.48,77.75,638.31l83.78-15.73c-.31-49.24-3.72-128.68.74-208.46,2.45-43.86,5.6-85.25,9.56-115.36,8.46-64.93,15.5-291,19.66-456.47,4.61-52.3,8.39-96.78,10.76-125.16,4.45-68.77,6.81-139,6.23-205.2S1789.5,1961.47,1782.15,1908.93Z"/><polygon class="cls-13" points="1267.9 3200.45 1253.07 3264 1467.03 3264 1348.4 3200.45 1267.9 3200.45"/><polygon class="cls-14" points="1666.17 3200.45 1651.34 3264 1865.31 3264 1746.67 3200.45 1666.17 3200.45"/><path class="cls-15" d="M1316.53,1228c0-.34.06-.67.08-1,1.93-104.35,37.51-196.42,150.67-213.61,12.94,7.25,40.71,25.08,81.52,63.11,46.83,43.64,92.36,140.82,108.31,177q2.25,17.17,4,35.74c20.45,219.59,47.92,704,57.4,876H1333.44S1303.59,1419.13,1316.53,1228Z"/><path class="cls-16" d="M1653.18,1129.34c-5.6-31.37-20.06-79.5-24.34-93.43,70.7,34.83,105.19,101.56,119.53,175.8h0q2,10.17,3.44,20.52c29.45,193.8,77.1,933,77.1,933h-110.4c-9.48-172-37-656.4-57.4-876q-1.65-17.71-3.79-34.13C1657.78,1231.49,1658.66,1160,1653.18,1129.34Z"/><path class="cls-17" d="M1657.73,1258.33s-50.79-127.67-108.93-181.85-82.46-63-82.46-63l-32.48,3.53,50.2,89.84,50.21,10.57,2.64,37Z"/><path class="cls-18" d="M1629,1036s17.62,56.37,24.22,93.37,4,129.48,4,129.48l39.64-111-15.86-30.39,15.86-18.49-35.68-48.89Z"/><path class="cls-19" d="M1483.44,1145.1c-2-3.29-47.82-81.16-24-129,9.76-19.64,29.74-31.25,59.39-34.52,50-5.51,95.29,18.15,130.84,68.44a296.76,296.76,0,0,1,38.73,77.76L1681,1130c-.11-.38-11.85-39.11-37.73-75.66-34.29-48.41-75.85-70.29-123.53-65-26.85,3-44.78,13.13-53.3,30.24-21.93,44.08,23.26,120.84,23.72,121.61Z"/><path class="cls-20" d="M1501.86,1272.29l-5-6c.38-.31,21.19-18,34-41.91-19.94-3.91-40.28-12-53.79-28-11-13-14.15-28.22-8.64-41.71a34.8,34.8,0,0,1,28.94-21.67c15.3-1.42,30.39,7.51,41.41,24.54,11.53,17.81,12.72,38.53,3.67,60.69a214.31,214.31,0,0,0,50.28.18l1.08,7.69a214.63,214.63,0,0,1-54.79-.36q-2.54,5-5.75,10.14A170.8,170.8,0,0,1,1501.86,1272.29Zm-1.11-131.62a24.14,24.14,0,0,0-2.68.12,27,27,0,0,0-22.47,16.87c-4.38,10.72-1.69,23,7.38,33.76,12.54,14.83,32.19,22.18,51.43,25.63,7.45-17.18,9.78-36.78-2.17-55.24C1523.39,1148.14,1512.3,1140.73,1500.75,1140.67Z"/><path class="cls-21" d="M1499.35,1274.75a5.44,5.44,0,0,1-3.51-9.58,155.29,155.29,0,0,0,22.53-24.16,5.43,5.43,0,1,1,8.65,6.58,165.51,165.51,0,0,1-24.12,25.86A5.4,5.4,0,0,1,1499.35,1274.75Z"/><path class="cls-22" d="M1567.61,1229.23q-3.3,0-6.72-.12a5.44,5.44,0,0,1,.19-10.87h.14a193.69,193.69,0,0,0,31.32-1.33,5.44,5.44,0,0,1,1.42,10.78A192.4,192.4,0,0,1,1567.61,1229.23Z"/><circle class="cls-23" cx="1691.9" cy="1151.68" r="22.14" transform="translate(-318.81 1533.67) rotate(-45)"/><path class="cls-24" d="M1691.77,1177.7a26,26,0,1,1,26.15-25.89A26,26,0,0,1,1691.77,1177.7Zm.22-44.28a18.26,18.26,0,1,0,18.16,18.35A18.28,18.28,0,0,0,1692,1133.42Z"/><path class="cls-25" d="M1600.9,750.06s31.19,5.21,36.8,35-9.77,57.62-45,47S1554.93,761.2,1600.9,750.06Z"/><path class="cls-26" d="M1618.06,1031c-.58-.25-1.15-.51-1.74-.75-7.41,7.14-42.41,7.94-74.12,5.3-47.11-3.93-59.84-17-65.57-23.08a245.71,245.71,0,0,0,17-53c8-39.67-5.83-81.13-5.83-81.13l85.07,12.3s-1.1,33.94,9.85,75.42C1592.81,1004.31,1614.71,1027.58,1618.06,1031Z"/><path class="cls-27" d="M1503.92,729.19C1429.86,746,1412.65,831.63,1449,873.67c33.52,38.75,55.43,16.64,74.21,48.14,14.52,24.35,67.17,52.53,93.35,48.12s38.69-66.08,18-146.16S1544.7,720,1503.92,729.19Z"/><polygon class="cls-28" points="1611.97 1015.71 1629 1036.11 1618.83 1059.31 1588.44 1036.85 1611.97 1015.71"/><polygon class="cls-29" points="1482.6 989.28 1465.57 1020.99 1564.15 1068.56 1588.44 1036.85 1482.6 989.28"/><path class="cls-30" d="M1480.1,731.64c-66.65,30-64.19,113-42.28,146.66s57.6,50.46,57.6,50.46-5.29-33.94,13.91-51.2,10.32-67.85,38.65-82.86,56.1,11.25,80.07-16.57-18.55-94.43-75.28-76.88S1496.41,724.29,1480.1,731.64Z"/><path class="cls-31" d="M1513.72,874.52s-29-10.38-20.1,13.62,34.68,19.5,34.68,19.5Z"/><polygon class="cls-32" points="2044.93 1220.3 1985.86 1202.42 1999.87 1169.03 2058.93 1186.91 2044.93 1220.3"/><path class="cls-33" d="M1865.5,1301.31a7.94,7.94,0,0,0,5.81-13.37l-97.2-104a7.94,7.94,0,0,0-11.61,10.84l97.2,104A7.89,7.89,0,0,0,1865.5,1301.31Z"/><path class="cls-34" d="M1826,1258.83c1-.69,2.14-1.5,3.32-2.39,9.52-7.17,23.37-19.18,34.43-8.4,8.89,8.68,3.07,22.78-1.94,30.47-7.44,11.42-17.08,21.55-26.71,31.3l-31.27-36.36Q1815,1266.19,1826,1258.83Z"/><path class="cls-35" d="M1380.64,1087.74c63.41-2.15,83.15,108,97.59,151.71,20.79,62.94,45.29,121.54,84.11,174.68,85.72-38.89,163.52-93.6,241.91-144.84l44.12,51c-3.08,3.13-6.17,6.21-9.18,9.28-38.13,38.92-87.73,73.91-130.85,107-26.71,20.49-54,39.54-83.11,56.56-25.23,14.74-64.16,32.53-94.44,29.13-12.27-1.38-23.42-7.83-33.21-15.35-33.33-25.64-64.33-53.94-89.37-87.88-34.85-47.23-59.15-102.15-72.29-159.28C1327.51,1223.24,1314.52,1090,1380.64,1087.74Z"/><polygon class="cls-36" points="2009.55 1524.08 1781.16 1454.93 1906.13 1156.98 2134.51 1226.13 2009.55 1524.08"/><path class="cls-37" d="M2092.84,1650.48c1.58-.43,3-.84,4.35-1.27,117.83-38.46,233.57-82.57,343.69-140.08a54.53,54.53,0,0,0,24.22-25.32c31.59-68,42.65-137.93,47.91-212,3.28-46.17-4.68-158.46,57.67-172,65-14.15,85.27,119,86.1,156.69,2.65,120.25-43,246.93-142.69,319.54-54.75,39.86-123,57.49-187.59,74.36-58.42,15.24-117.88,27.36-177.78,35-19.5,2.5-40,5.9-59.77,4.84-10.06-.54-26.18-4.29-27.37-16.76C2060.1,1658,2080.05,1653.92,2092.84,1650.48Z"/><path class="cls-38" d="M2499.76,1270.86c.48-6.73.71-14.95,1-24.48.77-27.55,1.73-61.84,9.47-92,10-38.7,29.35-61.45,57.65-67.61.74-.16,1.49-.31,2.22-.44,16.26-2.92,31.9,1.31,45.25,12.22,43.36,35.46,54.21,133.34,54.75,157.61,1.2,54.68-7.3,109-24.67,158.76l-158.5-42.33C2494.07,1337,2497.51,1302.5,2499.76,1270.86Z"/><path class="cls-39" d="M2899.93,1548.85c.74,34.88,1.93,95.59,2.05,131.35q2.33,88.71,4.37,176.69c4.19,190-4,295.5-2.78,487.62.09,15.88,1.68,33.3,9.75,47.29q17.11,42.85,30.49,86.29t23.54,87.34c49.86,209.6,49.41,420.62,50.71,631.57l-81,3c-9.53-47.86-27-131.18-47.33-208-11.19-42.22-22.57-81.95-32.51-110.6-29.51-85.48-118-470.86-144.25-586.63-14.18-68.36-26.5-138.39-35.3-204.62s-14.07-128.68-14.17-181.88c-.31-163.09-1.35-301.53.07-359.4Z"/><path class="cls-40" d="M2501,1896.91c20.3-145,46.41-278.53,60.8-348.06h226.7c-2.61,21.25-12.11,98.25-18.28,142.76q-10.18,88.32-20.55,175.89c-22.61,189.11-45.62,293.15-71.47,484.09-.6,4.42-1.09,9-1.37,13.54l1.12-.16a67.85,67.85,0,0,0,3.14,22.14q8.19,45.64,12.56,91.31t5.5,91.3c6.65,218.09-36.64,429.94-78.2,642l-84.27-15.82c.31-49.52,3.75-129.42-.73-209.66-2.47-44.11-5.64-85.74-9.62-116-8.51-65.3-15.59-292.65-19.78-459.09-4.63-52.6-8.43-97.34-10.82-125.88-4.47-69.17-6.85-139.82-6.26-206.39S2493.57,1949.77,2501,1896.91Z"/><polygon class="cls-41" points="3018.19 3195.88 3033.1 3259.8 2817.9 3259.8 2937.22 3195.88 3018.19 3195.88"/><polygon class="cls-42" points="2617.62 3195.88 2632.53 3259.8 2417.33 3259.8 2536.65 3195.88 2617.62 3195.88"/><path class="cls-43" d="M2507.29,1346h0c-20.35-149.87.91-330.31,211.78-354.23,198.62-22.52,230.15,153.44,219.72,311.7h0q-.66,10-1.52,19.8c-5.46,99.76,3.71,366.85,3.71,366.85s-204.65,38.53-301.66,21.26-138.2-31.9-138.2-31.9S2516.11,1456.33,2507.29,1346Z"/><path class="cls-44" d="M2735.1,852.82s-2.56,39.42,9,78.46,41.84,64,41.84,64-38.92,46-96.27,52.19-72.11-29.81-72.11-29.81,22.81-26.1,30.15-68.62,3.25-76.43,3.25-76.43Z"/><path class="cls-45" d="M2705.86,704.79c75.67,10.32,100.42,94.63,67.67,140-30.18,41.76-54.07,21.53-70.13,54.74-12.41,25.66-62.69,58.51-89.31,56.38s-44.56-62.81-30.82-144.86S2664.19,699.11,2705.86,704.79Z"/><path class="cls-46" d="M2783.1,1037.81c59-62.24,196.09,70,227.25,322.69s-58.1,549.29-76.39,585.66-50.83,23.62-39.6-21.79,19.89-333-5.94-498.55S2718.62,1105.79,2783.1,1037.81Z"/><path class="cls-47" d="M2797.43,1230.3c-38-85.84-70.87-160-26.39-204.68,11.43-11.49,25.72-17.82,41.32-18.32,39.89-1.27,84.5,33.85,122.39,96.35,29.36,48.45,52,109.61,66.08,177.16l-155,70.87C2832.43,1309.31,2814.23,1268.21,2797.43,1230.3Z"/><path class="cls-48" d="M2702.53,692.92c-3.89-.4-7.92-9.22-10.14-12.15-27.46-36.41-85.17-41.42-112.66-2.31-18.65,26.52-17.14,64.76,16.13,77.75,8.8,3.44,18.14,5.26,27.15,8.11,34.25,10.85,110.66,6.18,92.06,60.66-8.05,23.57,9.3,70.43,23.92,77.08-.29-.85,13.35-11.33,14.34-12.21,18.9-16.92,34.76-33.91,43.29-58.36,16.24-46.57,3.33-103.87-43.78-126.13a121,121,0,0,0-41-11C2705.83,693.26,2702.55,692.92,2702.53,692.92Z"/><path class="cls-49" d="M2714.07,850.79s28.12-12.94,21.33,11.89-33,22.57-33,22.57Z"/></g></svg>